<?xml version="1.0" standalone="no"?>
<!DOCTYPE svg PUBLIC "-//W3C//DTD SVG 20010904//EN"
 "http://www.w3.org/TR/2001/REC-SVG-20010904/DTD/svg10.dtd">
<svg version="1.0" xmlns="http://www.w3.org/2000/svg"
 width="833.000000pt" height="1080.000000pt" viewBox="0 0 833.000000 1080.000000"
 preserveAspectRatio="xMidYMid meet">

<g transform="translate(0.000000,1080.000000) scale(0.100000,-0.100000)"
fill="#000000" stroke="none">
<path d="M3765 9259 c-71 -4 -184 -17 -250 -29 -181 -33 -166 -41 30 -15 122
16 559 33 930 36 219 2 267 -1 395 -26 18 -4 21 -3 10 4 -8 5 -56 16 -107 25
-78 14 -153 16 -485 14 -216 -2 -451 -6 -523 -9z"/>
<path d="M5060 9181 c30 -16 84 -36 119 -45 35 -9 89 -31 120 -50 31 -18 102
-57 158 -86 117 -60 184 -120 163 -144 -7 -9 -17 -13 -23 -9 -6 3 -7 1 -3 -6
11 -18 -63 -46 -230 -86 -124 -31 -185 -39 -364 -52 -126 -8 -246 -12 -290 -7
-41 3 -253 8 -470 10 -361 2 -563 10 -880 32 -102 8 -176 20 -380 64 -30 7
-59 12 -65 12 -5 0 -27 6 -47 13 -22 7 -38 8 -38 3 0 -15 -38 -12 -43 3 -2 6
-4 0 -4 -16 0 -18 8 -34 26 -46 27 -19 195 -79 240 -85 14 -2 65 -11 113 -20
167 -30 417 -47 683 -48 143 0 314 0 380 -1 223 -3 779 12 865 23 92 12 136
23 188 47 18 8 41 12 49 8 9 -3 20 0 24 7 5 7 26 12 50 12 22 -1 36 2 29 6
-15 9 44 22 65 14 8 -4 15 -2 15 2 0 5 22 20 49 33 79 39 112 102 83 157 -6
11 -35 33 -64 48 -29 16 -75 46 -103 66 -118 89 -182 117 -345 150 -131 26
-137 25 -70 -9z m-2190 -376 c0 -1 -12 -2 -26 -2 -17 0 -22 2 -13 7 10 7 39 3
39 -5z m50 -15 c8 -5 11 -10 5 -10 -5 0 -17 5 -25 10 -8 5 -10 10 -5 10 6 0
17 -5 25 -10z m467 -86 c-3 -3 -12 -4 -19 -1 -8 3 -5 6 6 6 11 1 17 -2 13 -5z
m56 -11 c-7 -2 -19 -2 -25 0 -7 3 -2 5 12 5 14 0 19 -2 13 -5z m285 -20 c-26
-2 -71 -2 -100 0 -29 2 -8 3 47 3 55 0 79 -1 53 -3z m820 -20 c-10 -2 -26 -2
-35 0 -10 3 -2 5 17 5 19 0 27 -2 18 -5z"/>
<path d="M3154 9112 c-93 -33 -356 -193 -341 -209 3 -3 19 5 35 17 18 13 35
19 43 15 7 -5 10 -4 6 2 -4 6 28 29 76 53 45 23 104 56 131 73 26 17 71 38
100 48 35 12 43 18 26 18 -14 0 -48 -8 -76 -17z"/>
<path d="M5093 9123 c-7 -3 -13 -10 -13 -17 0 -31 -34 -77 -66 -91 -58 -24
-341 -35 -834 -31 -608 4 -783 24 -852 99 -16 16 -28 24 -28 18 0 -6 16 -29
36 -50 72 -81 202 -98 809 -111 606 -12 820 -7 907 20 48 15 74 30 97 55 37
42 37 45 11 68 -12 10 -18 23 -14 30 4 6 4 9 -1 5 -4 -4 -15 -4 -24 1 -9 5
-22 6 -28 4z"/>
<path d="M3210 9060 c-21 -17 -22 -19 -5 -14 20 6 20 5 1 -10 -11 -9 -27 -14
-35 -12 -9 3 -45 -11 -81 -30 -36 -19 -54 -32 -40 -29 l25 6 -24 -20 c-13 -12
-19 -21 -14 -21 5 0 13 4 19 10 5 5 27 19 49 30 37 19 38 21 10 15 l-30 -5 35
20 c43 24 57 25 39 3 -12 -14 -9 -13 16 2 51 32 78 55 66 55 -7 0 -9 5 -6 10
9 14 3 12 -25 -10z"/>
<path d="M5270 9018 c0 -11 12 -10 30 2 12 7 10 9 -8 7 -12 0 -22 -5 -22 -9z"/>
<path d="M5312 9011 c-10 -6 -1 -15 33 -35 26 -14 42 -20 36 -13 -6 8 -9 16
-6 19 3 3 -3 11 -12 19 -16 13 -17 12 -4 -3 14 -19 5 -23 -18 -9 -7 5 -10 14
-7 20 8 13 -3 14 -22 2z"/>
<path d="M5409 8978 c-7 -29 -5 -36 6 -32 7 3 19 -2 28 -10 13 -13 17 -13 26
-2 14 17 0 29 -24 20 -10 -4 -15 -2 -13 6 2 7 -3 15 -9 17 -7 3 -13 3 -14 1z"/>
<path d="M5315 8946 c-17 -12 -17 -14 10 -32 16 -10 38 -17 48 -16 11 2 17 -1
13 -6 -4 -6 -1 -14 5 -18 8 -4 9 -3 5 4 -4 7 -1 12 6 12 10 0 10 2 -1 9 -11 7
-11 10 0 15 8 3 3 3 -10 0 -15 -4 -21 -2 -17 4 3 6 2 13 -4 17 -5 3 -10 2 -10
-3 0 -5 -10 -8 -22 -7 -34 4 -36 6 -8 14 14 4 20 10 14 14 -6 3 -19 0 -29 -7z"/>
<path d="M2995 8929 c4 -6 1 -9 -6 -8 -19 3 -50 -11 -44 -21 2 -4 -8 -5 -23
-2 -22 4 -25 2 -14 -9 6 -7 12 -21 12 -30 0 -26 14 -30 59 -20 32 7 41 6 41
-4 0 -22 16 -26 46 -10 38 20 44 19 44 -6 0 -19 4 -20 50 -14 36 5 55 3 67 -7
12 -9 56 -13 162 -15 80 -1 135 1 121 3 -14 2 -74 12 -135 21 -80 12 -103 19
-85 24 24 7 24 7 -5 10 -16 1 -38 1 -49 0 -10 0 -26 4 -34 11 -9 7 -13 8 -9 2
5 -8 -6 -8 -38 -1 -25 6 -45 14 -45 19 0 5 -4 7 -9 3 -5 -3 -12 -1 -16 4 -3 6
-12 8 -19 5 -8 -3 -17 0 -22 7 -5 8 -3 10 7 4 12 -7 12 -6 0 6 -10 11 -15 11
-18 2 -6 -16 -39 -17 -48 -3 -4 6 -11 7 -17 4 -7 -4 -8 -2 -4 4 5 9 13 9 28 1
12 -7 18 -7 14 -1 -3 6 -1 12 6 14 7 3 5 7 -6 11 -11 4 -15 3 -11 -4z"/>
<path d="M3104 8925 c-14 -11 -15 -14 -4 -15 11 0 12 -2 3 -8 -9 -6 -7 -11 7
-20 12 -7 20 -8 20 -2 0 5 -5 10 -12 10 -6 0 -3 7 8 15 19 15 19 15 -1 8 -18
-6 -18 -5 -6 10 17 21 11 22 -15 2z"/>
<path d="M5490 8932 c0 -5 -15 -16 -32 -26 -18 -9 -24 -14 -13 -10 24 8 67 12
78 6 4 -2 2 -11 -5 -20 -12 -15 -11 -16 5 -3 15 12 17 12 11 -3 -3 -9 -12 -16
-19 -16 -22 0 -26 -17 -6 -23 11 -2 34 4 53 16 l33 20 -32 13 c-17 8 -34 18
-38 23 -3 6 -12 8 -20 4 -11 -4 -13 -1 -9 11 3 9 3 16 0 16 -3 0 -6 -4 -6 -8z"/>
<path d="M3147 8903 c-12 -11 -8 -22 12 -32 16 -9 17 -7 13 14 -4 25 -13 31
-25 18z"/>
<path d="M5436 8869 c2 -4 -4 -8 -13 -7 -10 0 -31 -5 -48 -11 l-30 -11 30 5
c17 3 48 8 70 11 50 7 54 10 16 16 -16 2 -28 1 -25 -3z"/>
<path d="M2630 8838 c-96 -25 -167 -75 -176 -124 -10 -52 3 -81 47 -111 47
-31 308 -113 362 -113 l37 0 -16 -25 c-8 -13 -13 -28 -10 -34 3 -5 0 -11 -6
-14 -10 -3 -10 -8 1 -18 9 -9 11 -9 7 -1 -4 6 -2 12 4 12 7 0 9 9 6 23 -3 12
-3 16 0 9 10 -21 33 5 26 30 -5 20 -3 21 39 14 24 -4 143 -11 264 -16 273 -12
376 -20 395 -32 12 -7 10 -8 -5 -4 -11 3 -137 8 -280 12 -143 4 -287 13 -320
19 -66 14 -79 8 -70 -32 3 -13 1 -23 -5 -23 -6 0 -8 5 -5 10 3 6 2 10 -4 10
-11 0 -24 -17 -29 -40 -14 -59 -14 -70 2 -70 9 0 16 6 16 13 0 8 4 7 10 -3 8
-12 10 -10 10 9 0 23 1 23 19 7 12 -11 19 -30 19 -49 -1 -18 -3 -26 -5 -19
-13 36 -18 -1 -16 -115 1 -85 -3 -133 -10 -142 -9 -11 -9 -15 1 -18 6 -3 10
-9 7 -13 -3 -5 -6 -185 -6 -400 0 -214 -4 -388 -7 -386 -6 3 -9 -548 -4 -638
2 -27 3 -28 20 -13 17 16 18 15 14 -18 -3 -21 -10 -35 -18 -35 -8 0 -14 -4
-14 -10 0 -5 7 -7 15 -4 13 5 15 -12 14 -127 -1 -74 -5 -123 -8 -109 -7 25 -7
25 -13 -5 -7 -36 -3 -43 28 -55 17 -7 24 -17 24 -37 0 -20 3 -24 9 -14 5 8 8
19 6 25 -2 6 -6 31 -10 55 -6 44 -5 44 13 28 26 -24 399 -84 600 -98 160 -10
582 -17 730 -11 70 3 82 6 82 21 0 16 -6 17 -47 10 -27 -4 -72 -8 -101 -8
l-52 -1 2 45 c2 32 7 45 18 46 10 0 11 2 3 6 -7 2 -13 17 -13 32 0 15 -2 30
-5 32 -2 3 -44 0 -92 -6 -99 -12 -94 -5 -81 -110 4 -31 4 -43 -2 -30 -7 17 -9
17 -9 3 -1 -16 -13 -18 -108 -18 -60 0 -145 4 -191 10 -46 5 -118 10 -162 11
-86 2 -92 9 -40 48 17 12 30 30 30 41 0 12 7 20 18 21 11 1 9 4 -8 9 -14 4
-81 8 -150 9 -118 1 -305 14 -397 27 l-41 6 -4 127 c-3 103 0 137 15 186 30
96 44 432 27 660 -7 99 -15 254 -17 345 -2 91 -4 183 -5 205 -1 22 0 72 2 110
2 39 -1 117 -7 175 -23 205 -23 230 -3 230 10 0 20 -5 22 -12 3 -9 6 -9 12 0
4 7 3 12 -3 12 -6 0 -8 7 -5 15 4 8 1 15 -5 15 -6 0 -11 -4 -11 -10 0 -5 -7
-10 -15 -10 -8 0 -15 8 -15 19 0 20 15 19 125 -9 22 -5 55 -10 73 -10 l34 0
-4 -155 c-2 -116 0 -156 9 -160 9 -3 10 -11 3 -30 -5 -14 -7 -25 -5 -25 2 0 0
-12 -5 -26 -12 -29 2 -49 41 -59 24 -6 24 -5 23 62 0 37 -4 91 -7 118 -4 28
-9 84 -12 125 -3 41 -9 91 -15 110 -12 42 -12 40 0 40 6 0 10 -8 11 -17 0 -15
2 -15 9 2 5 11 9 15 9 8 1 -7 8 -10 16 -7 8 4 31 3 50 0 l35 -7 -1 -182 c0
-100 5 -234 10 -297 15 -157 20 -249 14 -226 -4 14 -7 15 -13 6 -4 -7 0 -20
11 -31 15 -15 18 -32 16 -103 -1 -46 -5 -80 -8 -74 -4 6 -10 -33 -14 -86 -4
-53 -5 -100 -1 -103 3 -4 6 16 7 43 0 27 4 67 9 89 5 27 8 -25 8 -160 0 -153
5 -230 21 -330 11 -71 21 -134 21 -138 0 -17 21 6 40 43 26 50 29 190 5 210
-8 7 -15 22 -14 34 1 19 2 18 9 -4 7 -21 8 -19 9 18 1 23 -2 42 -6 42 -5 0 -9
114 -10 253 -1 168 -7 282 -17 342 -41 245 -65 445 -54 445 4 0 8 -10 8 -22 0
-12 3 -19 6 -15 10 9 -5 59 -15 52 -10 -6 -25 125 -19 165 3 23 7 25 43 22 22
-2 41 -5 41 -5 1 -1 -2 -54 -7 -117 -8 -121 1 -261 28 -408 8 -45 12 -97 9
-115 -5 -27 -5 -29 4 -9 5 13 12 35 14 49 3 14 6 26 8 27 2 0 13 7 26 14 13 7
27 10 32 7 8 -5 43 35 64 73 15 27 -6 10 -25 -20 -18 -29 -20 -30 -15 -8 4 14
7 65 8 114 1 77 3 87 14 71 8 -11 14 -13 14 -7 0 7 4 12 9 12 11 0 23 -99 13
-114 -4 -6 -10 5 -13 24 l-6 35 -2 -32 c0 -17 -5 -35 -11 -38 -5 -3 -10 -12
-10 -18 0 -7 7 -3 15 7 11 14 15 16 15 5 0 -8 9 0 20 16 11 17 20 37 20 46 0
9 9 24 19 33 10 9 21 27 24 39 2 12 8 31 12 42 5 16 5 17 -4 5 -9 -13 -11 -13
-11 2 0 9 4 18 9 20 17 6 -8 48 -29 48 -36 0 -22 42 18 52 17 5 32 13 32 19 0
6 -5 7 -12 3 -8 -5 -9 4 -5 32 4 21 7 47 7 57 0 10 8 17 20 17 16 0 19 -5 15
-30 -3 -16 -7 -43 -10 -60 -2 -16 -1 -31 3 -33 4 -2 36 0 72 3 l65 7 -52 1
-53 2 0 45 c0 25 1 48 3 53 2 8 59 7 315 -8 101 -6 187 -8 193 -5 5 4 9 3 9
-2 0 -4 50 -8 111 -8 60 0 100 3 87 6 -13 3 36 9 107 13 72 3 163 9 203 12 80
5 78 8 55 -53 -3 -7 2 -13 11 -13 14 0 20 -10 18 -30 0 -3 9 -6 21 -7 12 0 17
1 10 4 -7 2 -9 11 -6 19 3 9 20 14 50 14 36 0 44 -3 39 -15 -4 -10 4 -8 25 7
16 12 32 33 35 45 4 13 10 21 14 18 4 -3 8 1 7 8 -1 33 4 47 17 47 21 0 25
-32 7 -54 -9 -11 -10 -16 -3 -12 9 5 12 -11 12 -68 0 -83 -7 -116 -21 -94 -7
10 -9 9 -9 -4 0 -12 -5 -16 -17 -12 -15 5 -16 4 -3 -5 11 -8 0 -10 -45 -10
-52 1 -55 3 -25 9 l35 7 -34 2 c-29 1 -33 4 -28 22 6 22 -1 49 -12 49 -4 0 -7
-19 -8 -42 -1 -23 -8 -45 -15 -49 -15 -10 -2 -11 87 -9 33 1 63 7 67 13 17 28
24 -10 14 -79 -6 -41 -6 -42 34 -58 22 -9 49 -16 59 -16 11 0 22 -6 24 -12 4
-10 6 -10 6 0 1 8 -7 16 -18 19 -19 5 -24 32 -37 205 -3 32 -8 78 -13 102 -7
38 -6 46 8 49 14 4 13 5 -1 6 -26 2 -22 19 5 24 19 4 18 4 -5 6 -33 1 -38 21
-6 21 37 0 222 52 241 68 9 8 20 12 24 9 3 -4 11 0 17 8 6 8 76 32 156 54 252
69 304 96 320 165 7 33 5 45 -11 67 -39 55 -131 100 -187 91 -18 -3 -3 -14 65
-49 48 -25 96 -55 106 -66 19 -21 18 -22 -15 -52 -49 -45 -283 -128 -454 -161
-216 -41 -231 -43 -338 -49 -56 -3 -130 -10 -166 -16 -186 -27 -430 -37 -750
-30 -179 5 -332 11 -341 15 -19 9 -280 32 -569 51 -124 8 -234 19 -245 25 -11
5 -48 14 -82 20 -34 6 -78 17 -97 25 -19 8 -54 19 -78 24 -39 9 -82 27 -188
81 -19 9 -47 20 -63 24 l-27 7 14 -36 c15 -35 15 -35 -7 -24 -40 21 -65 50
-60 69 6 24 112 84 173 100 46 11 109 50 80 49 -8 -1 -49 -10 -90 -21z m2463
-405 c-13 -2 -33 -2 -45 0 -13 2 -3 4 22 4 25 0 35 -2 23 -4z m-2153 -48 c0
-8 -2 -15 -4 -15 -2 0 -6 7 -10 15 -3 8 -1 15 4 15 6 0 10 -7 10 -15z m660
-41 c0 -3 -8 -31 -17 -62 -19 -60 -24 -248 -10 -382 4 -48 4 -57 -3 -35 -6 17
-11 58 -12 92 -2 33 -6 59 -9 57 -3 -2 -11 58 -18 134 -7 75 -14 145 -16 155
-2 11 5 22 18 28 l22 10 -22 -5 c-13 -2 -23 0 -23 5 0 5 20 9 45 9 25 0 45 -3
45 -6z"/>
<path d="M3552 8260 c0 -14 2 -19 5 -12 2 6 2 18 0 25 -3 6 -5 1 -5 -13z"/>
<path d="M3532 8230 c0 -14 2 -19 5 -12 2 6 2 18 0 25 -3 6 -5 1 -5 -13z"/>
<path d="M5315 8840 c-3 -6 1 -7 9 -4 18 7 21 14 7 14 -6 0 -13 -4 -16 -10z"/>
<path d="M5399 8836 c-2 -3 -22 -7 -44 -10 -62 -9 -114 -16 -185 -26 -36 -5
-100 -10 -142 -10 -91 0 -383 -36 -407 -50 -21 -12 -9 -12 64 0 33 6 150 15
260 20 110 5 241 17 290 26 50 9 99 17 110 18 34 4 65 17 65 27 0 10 -4 12
-11 5z"/>
<path d="M3368 8823 c18 -2 45 -2 60 0 15 2 0 4 -33 4 -33 0 -45 -2 -27 -4z"/>
<path d="M3471 8816 c2 -2 29 -6 59 -9 34 -3 47 -2 35 3 -19 8 -103 14 -94 6z"/>
<path d="M3655 8791 c3 -6 22 -11 42 -11 44 0 41 5 -10 14 -27 5 -37 4 -32 -3z"/>
<path d="M3753 8773 c9 -2 23 -2 30 0 6 3 -1 5 -18 5 -16 0 -22 -2 -12 -5z"/>
<path d="M5576 8765 c-11 -8 -16 -15 -10 -15 5 0 18 7 28 15 11 8 16 15 10 15
-5 0 -18 -7 -28 -15z"/>
<path d="M2480 8701 c0 -6 4 -13 10 -16 6 -3 7 1 4 9 -7 18 -14 21 -14 7z"/>
<path d="M5540 8470 c-1 -8 -1 -45 0 -83 1 -51 -3 -75 -18 -100 -36 -59 -45
-130 -38 -279 5 -103 12 -152 27 -191 19 -51 20 -70 17 -790 -1 -505 -5 -745
-13 -760 -16 -33 -114 -67 -270 -93 -77 -13 -147 -26 -155 -29 -37 -11 194 6
270 20 130 24 154 32 181 61 l24 26 -4 734 -3 734 29 0 c16 0 67 16 113 36 47
19 113 46 148 60 94 36 174 79 200 106 28 31 39 110 22 162 -10 31 -22 42 -81
71 -38 19 -101 48 -141 64 -40 16 -95 41 -122 55 -27 14 -56 26 -66 26 -9 0
-25 7 -36 15 -10 8 -31 15 -45 15 -25 0 -26 2 -22 43 3 23 0 58 -5 77 -6 19
-11 28 -12 20z m350 -320 c36 -18 66 -33 68 -35 1 -1 -4 -19 -12 -41 -8 -21
-15 -33 -15 -26 -1 7 -6 10 -11 7 -6 -4 -8 -16 -5 -28 6 -21 6 -21 -14 2 -12
12 -19 27 -16 31 3 4 -2 11 -11 14 -10 4 -14 14 -11 25 4 16 -6 23 -57 41 -96
34 -91 38 -94 -72 -1 -54 1 -98 5 -98 4 0 44 7 87 15 83 16 115 13 50 -4 -169
-44 -200 -49 -190 -32 3 5 1 22 -4 37 -11 33 -30 223 -23 240 6 15 170 -34
253 -76z m122 -139 c-3 -36 -7 -49 -13 -40 -12 19 -11 56 2 81 14 27 16 22 11
-41z"/>
<path d="M5495 8449 c-4 -6 -5 -12 -2 -15 2 -3 7 2 10 11 7 17 1 20 -8 4z"/>
<path d="M2820 8439 c0 -5 5 -7 10 -4 6 3 10 8 10 11 0 2 -4 4 -10 4 -5 0 -10
-5 -10 -11z"/>
<path d="M5398 8423 c6 -2 18 -2 25 0 6 3 1 5 -13 5 -14 0 -19 -2 -12 -5z"/>
<path d="M5462 8415 c2 -13 -2 -20 -13 -19 -9 1 -16 -5 -16 -12 0 -9 5 -10 18
-3 26 13 33 29 19 42 -9 9 -11 7 -8 -8z"/>
<path d="M2828 8383 c5 -59 10 -63 11 -10 1 26 -3 47 -7 47 -4 0 -6 -17 -4
-37z"/>
<path d="M5358 8413 c7 -3 16 -2 19 1 4 3 -2 6 -13 5 -11 0 -14 -3 -6 -6z"/>
<path d="M2801 8334 c-1 -76 -3 -82 -23 -87 -43 -10 -203 -75 -343 -138 -135
-62 -140 -66 -153 -103 -28 -86 -9 -216 32 -216 7 0 51 -17 97 -39 46 -21 138
-59 204 -85 66 -26 128 -51 137 -56 10 -6 25 -10 34 -10 15 0 16 -8 10 -61 -3
-34 -6 -351 -6 -705 l0 -642 -47 -18 c-27 -10 -66 -29 -88 -43 -22 -14 -80
-43 -130 -66 -49 -22 -119 -57 -155 -77 -36 -19 -92 -49 -126 -66 -63 -32
-114 -86 -114 -121 0 -41 56 -88 138 -115 62 -20 355 -93 448 -112 14 -2 24
-14 27 -31 9 -44 63 -120 96 -138 85 -44 582 -95 916 -95 116 0 125 -2 235
-41 63 -23 126 -43 140 -44 14 -1 33 -6 42 -10 30 -12 53 -1 56 28 6 51 67 64
352 77 677 31 723 35 789 70 65 34 92 57 133 111 46 63 49 64 107 73 l44 7 -7
-53 c-17 -134 -30 -220 -125 -779 -56 -328 -101 -603 -101 -610 -1 -8 -10 2
-20 22 -43 81 -130 126 -317 164 -69 14 -129 28 -133 30 -25 16 -355 47 -542
52 -120 3 -218 7 -218 8 0 2 7 20 16 41 36 84 -13 587 -70 725 -8 20 -11 -26
-12 -190 -1 -164 -6 -249 -22 -353 -22 -145 -18 -197 16 -217 15 -9 15 -10 -3
-11 -11 0 -114 -9 -230 -20 -497 -46 -733 -94 -811 -163 -35 -30 -59 -65 -51
-73 2 -2 18 2 36 9 17 7 29 15 27 18 -2 2 9 4 25 4 16 0 29 -2 29 -5 0 -3 -14
-21 -30 -40 -28 -34 -29 -34 -30 -10 0 16 -3 21 -10 14 -12 -12 -29 -169 -22
-213 3 -22 1 -32 -5 -28 -6 4 -14 33 -18 64 -3 32 -21 128 -40 213 -18 85 -41
196 -50 245 -9 50 -38 180 -65 290 -27 110 -67 297 -90 415 -47 244 -62 306
-54 220 9 -104 76 -465 115 -626 42 -175 101 -457 153 -739 18 -99 40 -202 49
-230 9 -27 29 -95 46 -150 34 -112 55 -149 70 -125 8 12 12 10 19 -10 5 -14 7
-29 4 -35 -3 -5 -2 -7 3 -3 9 9 47 -10 41 -20 -2 -4 6 -8 19 -8 13 -1 38 -12
56 -25 18 -13 29 -18 25 -11 -11 18 9 14 67 -13 28 -14 90 -32 137 -40 47 -8
128 -24 180 -34 210 -43 354 -54 623 -47 233 6 438 22 462 37 6 4 28 10 50 13
123 22 303 93 397 158 14 10 34 18 43 18 15 0 16 -7 11 -55 -16 -147 -18 -170
-13 -165 3 3 19 72 36 155 18 82 34 152 37 155 3 3 3 -22 0 -55 -5 -58 -5 -58
5 -15 5 25 7 63 4 85 -3 22 -2 35 2 29 5 -7 9 15 10 49 1 34 7 63 14 67 6 4 9
12 5 18 -3 5 -3 31 1 57 4 33 9 43 15 33 7 -9 8 -5 4 12 -7 33 9 133 200 1210
25 140 49 298 54 350 5 52 14 118 20 146 10 46 14 52 42 58 17 3 41 6 55 6 23
0 23 -1 17 -67 -8 -93 -48 -341 -83 -525 -41 -213 -73 -396 -116 -658 -20
-124 -63 -380 -96 -570 -111 -657 -178 -1056 -197 -1188 -19 -128 -21 -134
-59 -176 -47 -53 -135 -100 -233 -125 -65 -16 -77 -16 -92 -4 -19 17 -152 14
-253 -5 -152 -29 -262 -35 -461 -26 -114 6 -231 6 -274 1 -54 -6 -105 -4 -185
7 -60 8 -137 18 -170 22 -33 3 -118 24 -188 46 -113 35 -133 44 -169 81 -22
23 -51 65 -64 94 -26 58 -43 70 -148 102 -60 18 -93 21 -267 21 -252 0 -290
-7 -350 -69 l-45 -47 -65 55 c-35 30 -88 65 -118 79 -47 22 -63 24 -125 19
-101 -9 -129 -19 -251 -92 -133 -80 -159 -100 -258 -194 -119 -114 -134 -173
-71 -272 29 -45 49 -62 98 -87 33 -17 90 -36 126 -42 36 -6 94 -16 130 -22 95
-15 152 -5 255 46 50 25 109 52 132 60 23 8 67 31 97 50 53 34 55 34 68 15 7
-12 36 -29 63 -39 28 -10 75 -28 105 -39 30 -12 60 -19 67 -17 7 3 38 -2 70
-11 39 -10 103 -15 193 -16 171 0 229 18 307 95 46 46 54 50 70 38 13 -10 15
-11 6 -1 -9 10 -4 28 19 80 16 36 27 76 25 88 -2 13 0 23 5 23 5 0 48 -16 95
-36 100 -41 301 -78 513 -94 161 -13 626 -12 725 1 39 5 98 11 132 13 78 7
309 67 385 100 70 31 133 87 147 129 18 56 77 373 191 1035 60 354 115 664
121 690 14 63 61 338 104 607 19 121 53 324 75 450 21 127 42 264 46 306 l7
77 141 37 c197 52 261 79 291 124 25 35 32 76 17 96 -4 6 -29 20 -56 33 -27
13 -69 40 -95 62 -61 51 -291 173 -416 221 -54 21 -101 37 -103 35 -6 -7 94
-65 146 -85 30 -12 80 -40 113 -62 33 -22 116 -67 185 -100 71 -33 122 -64
119 -69 -4 -6 -3 -9 2 -8 4 1 25 -9 46 -22 33 -22 37 -29 35 -60 -3 -33 -7
-37 -88 -77 -61 -30 -112 -46 -180 -58 -52 -9 -126 -25 -165 -35 -172 -46
-350 -65 -380 -40 -12 10 -27 9 -82 -5 -38 -9 -109 -18 -159 -20 -51 -1 -97
-6 -103 -9 -6 -4 -87 -14 -179 -22 -92 -7 -243 -20 -337 -29 -211 -18 -342
-20 -347 -3 -3 9 -27 9 -109 0 -130 -15 -644 -16 -794 -1 -279 27 -889 133
-1015 176 -122 42 -138 52 -145 93 -12 69 19 99 165 164 57 26 129 62 160 80
30 18 108 57 173 86 l118 53 22 -21 c42 -39 171 -82 295 -97 373 -45 1250 -43
1417 4 17 4 -164 6 -407 3 -301 -3 -466 -1 -530 7 -51 7 -160 16 -243 21 -82
6 -184 14 -225 19 -77 10 -281 54 -300 66 -5 3 -10 18 -9 33 0 15 3 21 6 14 4
-10 8 -9 18 5 7 10 10 20 6 23 -4 3 -4 68 0 145 4 77 9 257 11 400 2 143 2
241 0 217 -2 -23 -7 -40 -12 -37 -4 3 -11 -39 -15 -92 -3 -54 -8 -102 -10
-108 -2 -5 -3 166 -4 381 0 216 -3 398 -6 406 -3 8 -1 32 4 53 l9 40 2 -60 c1
-33 2 -73 2 -90 -1 -29 -1 -29 7 -5 5 14 10 21 12 15 1 -5 6 40 10 100 4 61
16 166 27 234 24 152 18 225 -30 326 -23 49 -36 97 -44 160 l-11 90 -2 -81z
m36 -161 c39 -89 54 -178 45 -264 l-8 -74 -8 55 c-4 30 -26 110 -48 178 -38
118 -40 122 -67 122 -16 0 -48 -7 -72 -15 -55 -20 -46 -11 27 25 88 44 100 41
131 -27z m-94 -20 c20 -72 20 -73 -17 -73 -20 0 -74 -9 -122 -20 -48 -11 -89
-19 -91 -17 -2 2 18 13 45 24 27 11 64 34 84 51 31 28 69 49 90 51 4 1 9 -7
11 -16z m-395 -213 l0 -25 -8 25 c-4 14 -8 34 -8 45 l-1 20 9 -20 c5 -11 8
-31 8 -45z m373 -34 l34 -14 -50 0 c-27 0 -84 5 -125 12 -61 10 -69 14 -45 19
47 8 149 -1 186 -17z m-96 -40 c59 -12 60 -12 67 -51 4 -22 7 -53 7 -69 1 -26
-1 -28 -26 -21 -14 3 -71 27 -126 52 -55 25 -120 48 -144 51 -27 3 -42 9 -38
16 3 6 8 19 11 30 6 17 15 18 98 12 50 -4 118 -13 151 -20z m470 -2429 c94 -6
202 -10 240 -10 346 4 1649 2 1656 -3 5 -3 9 -16 9 -28 0 -22 -5 -24 -87 -29
-49 -3 -128 -11 -178 -17 -221 -27 -1301 -16 -1520 16 -60 8 -140 22 -176 30
-37 8 -77 14 -90 14 -29 0 -109 36 -109 48 0 18 13 20 48 5 24 -10 97 -19 207
-26z m1113 -1102 c-3 -3 -63 -10 -134 -15 -112 -8 -178 -14 -358 -34 -22 -3
-35 -1 -30 4 8 8 60 19 194 40 53 9 336 12 328 5z m-213 -64 c-6 -5 -55 -19
-110 -31 -55 -12 -122 -31 -149 -41 -28 -10 -51 -17 -53 -15 -6 6 93 55 136
66 24 6 71 15 105 19 33 5 65 9 71 10 5 1 5 -2 0 -8z m89 -46 c11 -8 29 -15
40 -15 12 0 28 -5 36 -11 11 -8 3 -9 -30 -4 -24 3 -52 13 -61 21 -9 8 -23 12
-34 8 -13 -5 -16 -4 -11 4 10 16 37 15 60 -3z m465 -105 c-27 -16 -188 -40
-258 -39 l-66 1 85 13 c90 14 215 31 240 33 12 1 12 0 -1 -8z m336 -59 c-17
-15 -136 -50 -209 -61 -67 -11 -273 -3 -260 9 3 3 47 9 97 13 104 7 344 37
377 47 2 0 0 -3 -5 -8z m-126 -106 c-3 -2 -57 -15 -122 -29 -104 -22 -128 -24
-227 -16 -61 4 -113 10 -116 13 -3 2 64 7 148 11 84 3 182 10 218 15 86 11
104 12 99 6z m316 -115 c-3 -5 -13 -10 -21 -10 -8 0 -54 -11 -102 -24 -48 -14
-111 -28 -141 -31 -31 -4 -61 -15 -72 -26 -10 -10 -27 -20 -36 -20 -10 -1 -4
-4 12 -8 34 -7 39 -29 10 -45 -11 -6 -22 -12 -24 -14 -3 -1 5 -12 17 -25 21
-23 22 -24 6 -83 -9 -32 -22 -83 -29 -112 -7 -29 -15 -56 -18 -59 -8 -7 2 92
14 137 15 57 11 85 -16 110 -14 13 -25 31 -25 41 0 13 -9 19 -32 21 -51 5 -48
33 4 51 42 15 40 15 -92 14 -137 -2 -380 16 -435 31 -25 7 -13 10 65 18 52 5
133 7 180 6 47 -2 195 4 330 13 135 8 274 17 310 18 36 2 73 4 83 5 10 1 15
-2 12 -8z m-3012 -1221 c13 -6 31 -24 41 -40 15 -25 15 -33 4 -56 -17 -36 -69
-70 -137 -89 -31 -9 -102 -41 -158 -71 -57 -30 -103 -53 -103 -50 0 15 206
139 262 157 126 40 154 92 78 143 -28 19 -22 22 13 6z m272 -249 c9 -41 -15
-80 -85 -138 -59 -50 -238 -158 -246 -149 -3 2 8 12 23 22 15 10 69 53 119 95
49 42 104 85 122 95 41 24 57 62 42 100 -9 24 -9 26 4 16 8 -7 18 -25 21 -41z
m380 19 c71 -22 105 -24 245 -16 84 5 93 4 47 -3 -32 -5 -75 -14 -95 -20 -72
-20 -136 -12 -224 26 -46 20 -85 39 -88 41 -7 7 47 -6 115 -28z m-147 -85 c18
-13 56 -30 85 -40 67 -21 85 -38 32 -29 -69 12 -99 25 -137 60 -58 54 -52 57
20 9z m654 19 c28 -26 21 -50 -24 -83 -66 -48 -103 -54 -232 -35 -210 31 -211
34 -4 32 186 -2 198 -1 225 19 34 26 39 46 18 68 -22 21 -7 21 17 -1z"/>
<path d="M5405 8390 c-3 -5 -1 -10 4 -10 6 0 11 5 11 10 0 6 -2 10 -4 10 -3 0
-8 -4 -11 -10z"/>
<path d="M5370 8380 c-8 -26 -7 -41 2 -32 6 6 8 16 5 24 -3 7 -6 11 -7 8z"/>
<path d="M2990 8360 c0 -5 5 -10 11 -10 5 0 7 5 4 10 -3 6 -8 10 -11 10 -2 0
-4 -4 -4 -10z"/>
<path d="M3128 8343 c7 -3 16 -2 19 1 4 3 -2 6 -13 5 -11 0 -14 -3 -6 -6z"/>
<path d="M2850 8331 c0 -6 4 -13 10 -16 6 -3 7 1 4 9 -7 18 -14 21 -14 7z"/>
<path d="M3407 8323 c-9 -8 -8 -73 2 -97 4 -12 7 5 7 42 -1 34 -1 62 -2 62 0
0 -4 -3 -7 -7z"/>
<path d="M3084 8299 c1 -15 -5 -24 -14 -24 -8 0 -16 -8 -18 -17 -2 -11 3 -18
12 -18 18 0 22 -45 6 -70 -6 -9 -5 -17 3 -22 8 -5 5 -8 -8 -8 -12 0 -26 5 -33
12 -9 9 -12 9 -12 0 0 -13 76 -36 96 -28 10 4 11 12 2 36 -6 17 -8 50 -5 73 4
29 3 37 -5 26 -7 -11 -9 -9 -5 8 3 12 -1 30 -8 39 -11 15 -12 14 -11 -7z m6
-45 c0 -2 -7 -4 -15 -4 -8 0 -15 4 -15 10 0 5 7 7 15 4 8 -4 15 -8 15 -10z"/>
<path d="M3452 8295 c0 -16 2 -22 5 -12 2 9 2 23 0 30 -3 6 -5 -1 -5 -18z"/>
<path d="M5338 8264 c-9 -32 -15 -60 -13 -62 5 -6 37 98 33 109 -2 7 -11 -15
-20 -47z"/>
<path d="M2921 8294 c0 -11 3 -14 6 -6 3 7 2 16 -1 19 -3 4 -6 -2 -5 -13z"/>
<path d="M2891 8284 c0 -11 3 -14 6 -6 3 7 2 16 -1 19 -3 4 -6 -2 -5 -13z"/>
<path d="M4603 8293 c9 -2 23 -2 30 0 6 3 -1 5 -18 5 -16 0 -22 -2 -12 -5z"/>
<path d="M4840 8290 c-11 -7 -6 -10 20 -10 26 0 31 3 20 10 -8 5 -17 10 -20
10 -3 0 -12 -5 -20 -10z"/>
<path d="M4375 8263 c-5 -12 -9 -14 -12 -5 -6 15 -29 16 -39 0 -5 -7 -3 -8 5
-4 7 5 21 0 32 -10 15 -14 22 -15 32 -5 9 10 8 11 -8 5 -18 -7 -19 -6 -6 9 8
10 12 20 9 23 -3 3 -9 -3 -13 -13z"/>
<path d="M4606 8272 c-3 -5 29 -7 72 -5 106 6 113 11 15 12 -45 1 -84 -3 -87
-7z"/>
<path d="M5311 8264 c0 -11 3 -14 6 -6 3 7 2 16 -1 19 -3 4 -6 -2 -5 -13z"/>
<path d="M4490 8260 c8 -5 24 -10 35 -10 17 0 17 2 5 10 -8 5 -24 10 -35 10
-17 0 -17 -2 -5 -10z"/>
<path d="M5291 8263 c-1 -6 -4 -20 -7 -30 -5 -17 -5 -17 6 0 6 10 9 23 6 30
-3 9 -5 9 -5 0z"/>
<path d="M5086 8251 c-4 -5 3 -7 14 -4 23 6 26 13 6 13 -8 0 -17 -4 -20 -9z"/>
<path d="M4425 8240 c-14 -7 -8 -8 20 -3 22 3 42 7 44 9 9 8 -45 2 -64 -6z"/>
<path d="M3271 8224 c0 -11 3 -14 6 -6 3 7 2 16 -1 19 -3 4 -6 -2 -5 -13z"/>
<path d="M4280 8228 c0 -4 9 -8 20 -8 11 0 20 4 20 8 0 4 -9 8 -20 8 -11 0
-20 -4 -20 -8z"/>
<path d="M4990 8230 c0 -5 7 -10 15 -10 7 0 19 -8 24 -17 6 -10 11 -13 11 -6
0 14 -27 43 -41 43 -5 0 -9 -4 -9 -10z"/>
<path d="M5232 8215 c0 -16 2 -22 5 -12 2 9 2 23 0 30 -3 6 -5 -1 -5 -18z"/>
<path d="M3999 8217 c4 -4 37 -7 72 -5 l64 3 -72 5 c-40 3 -68 1 -64 -3z"/>
<path d="M3027 8201 c-4 -17 -3 -21 5 -13 5 5 8 16 6 23 -3 8 -7 3 -11 -10z"/>
<path d="M4183 8213 c15 -2 39 -2 55 0 15 2 2 4 -28 4 -30 0 -43 -2 -27 -4z"/>
<path d="M4918 8213 c7 -3 16 -2 19 1 4 3 -2 6 -13 5 -11 0 -14 -3 -6 -6z"/>
<path d="M4938 8193 c7 -3 16 -2 19 1 4 3 -2 6 -13 5 -11 0 -14 -3 -6 -6z"/>
<path d="M2921 8180 c0 -8 4 -22 9 -30 12 -18 12 -2 0 25 -6 13 -9 15 -9 5z"/>
<path d="M5025 8160 c-3 -5 -1 -10 4 -10 6 0 11 5 11 10 0 6 -2 10 -4 10 -3 0
-8 -4 -11 -10z"/>
<path d="M3138 8153 c7 -3 16 -2 19 1 4 3 -2 6 -13 5 -11 0 -14 -3 -6 -6z"/>
<path d="M5220 8146 c0 -8 5 -18 10 -21 6 -3 10 3 10 14 0 12 -4 21 -10 21 -5
0 -10 -6 -10 -14z"/>
<path d="M5283 8127 c-1 -17 2 -37 7 -46 7 -12 8 -8 4 15 -6 30 18 66 33 50 4
-3 -1 -12 -10 -19 -13 -9 -14 -19 -7 -47 9 -34 9 -34 8 -5 0 46 1 51 13 35 9
-13 10 -12 5 3 -3 9 0 17 6 17 23 0 -12 25 -35 25 -17 1 -22 -5 -24 -28z"/>
<path d="M3168 8133 c7 -3 16 -2 19 1 4 3 -2 6 -13 5 -11 0 -14 -3 -6 -6z"/>
<path d="M5262 8100 c0 -14 2 -19 5 -12 2 6 2 18 0 25 -3 6 -5 1 -5 -13z"/>
<path d="M5333 8042 c-1 -36 1 -41 7 -22 11 33 12 70 3 70 -5 0 -9 -21 -10
-48z"/>
<path d="M2910 8016 c0 -8 4 -17 9 -20 5 -4 7 3 4 14 -6 23 -13 26 -13 6z"/>
<path d="M5353 7915 c0 -33 2 -45 4 -27 2 18 2 45 0 60 -2 15 -4 0 -4 -33z"/>
<path d="M3461 7904 c0 -11 3 -14 6 -6 3 7 2 16 -1 19 -3 4 -6 -2 -5 -13z"/>
<path d="M2922 7890 c0 -14 2 -19 5 -12 2 6 2 18 0 25 -3 6 -5 1 -5 -13z"/>
<path d="M3236 7847 c-42 -89 -42 -101 -4 -131 26 -20 34 -22 36 -11 2 8 8 15
13 15 5 0 9 5 9 11 0 5 -4 8 -9 5 -5 -3 -8 32 -7 79 1 47 -1 85 -5 85 -4 0
-19 -24 -33 -53z"/>
<path d="M5272 7865 c0 -16 2 -22 5 -12 2 9 2 23 0 30 -3 6 -5 -1 -5 -18z"/>
<path d="M2917 7843 c-2 -5 -1 -19 4 -33 7 -23 7 -23 8 8 1 31 -3 40 -12 25z"/>
<path d="M5281 7794 c0 -11 3 -14 6 -6 3 7 2 16 -1 19 -3 4 -6 -2 -5 -13z"/>
<path d="M3480 7781 c0 -11 4 -22 9 -25 4 -3 6 6 3 19 -5 30 -12 33 -12 6z"/>
<path d="M2906 7771 c-3 -5 1 -11 9 -14 9 -4 12 -1 8 9 -6 16 -10 17 -17 5z"/>
<path d="M2912 7720 c0 -14 2 -19 5 -12 2 6 2 18 0 25 -3 6 -5 1 -5 -13z"/>
<path d="M3345 7731 c-3 -5 -1 -12 5 -16 5 -3 10 1 10 9 0 18 -6 21 -15 7z"/>
<path d="M2892 7705 c0 -16 2 -22 5 -12 2 9 2 23 0 30 -3 6 -5 -1 -5 -18z"/>
<path d="M5335 7675 c-4 -31 -5 -58 -3 -61 3 -2 8 21 12 52 4 31 5 59 2 61 -2
3 -8 -21 -11 -52z"/>
<path d="M3481 7704 c0 -11 3 -14 6 -6 3 7 2 16 -1 19 -3 4 -6 -2 -5 -13z"/>
<path d="M5321 7704 c0 -11 3 -14 6 -6 3 7 2 16 -1 19 -3 4 -6 -2 -5 -13z"/>
<path d="M3310 7680 c8 -5 20 -10 25 -10 6 0 3 5 -5 10 -8 5 -19 10 -25 10 -5
0 -3 -5 5 -10z"/>
<path d="M3480 7673 c0 -5 5 -15 10 -23 8 -12 10 -11 10 8 0 12 -4 22 -10 22
-5 0 -10 -3 -10 -7z"/>
<path d="M2885 7641 c-3 -5 -1 -12 5 -16 5 -3 10 1 10 9 0 18 -6 21 -15 7z"/>
<path d="M5299 7600 c-5 -36 -3 -57 5 -62 8 -5 7 -11 -2 -20 -6 -6 -12 -30
-12 -52 l1 -41 14 32 c7 17 15 55 18 85 2 29 2 42 -1 28 -5 -18 -8 -10 -12 30
l-5 55 -6 -55z m8 -112 c-3 -8 -6 -5 -6 6 -1 11 2 17 5 13 3 -3 4 -12 1 -19z"/>
<path d="M2892 7530 c0 -19 2 -27 5 -17 2 9 2 25 0 35 -3 9 -5 1 -5 -18z"/>
<path d="M5045 7423 c-9 -127 0 -344 21 -537 16 -144 13 -236 -10 -259 -18
-18 -26 -64 -10 -64 7 0 10 7 6 16 -3 9 -2 13 2 9 5 -4 9 -22 11 -40 1 -18 10
-77 19 -131 9 -54 14 -102 11 -107 -4 -6 -1 -10 4 -10 6 0 10 -3 8 -8 -2 -7 6
-12 24 -12 5 0 8 4 5 9 -4 5 0 12 6 14 7 3 9 6 3 6 -12 1 -14 480 -1 499 4 7
5 16 1 20 -3 3 -9 1 -13 -5 -4 -7 -8 15 -9 47 -1 33 3 60 8 60 5 0 9 5 9 12 0
6 -3 9 -6 5 -4 -3 -14 4 -24 15 -13 16 -15 30 -9 52 9 38 7 224 -2 199 -5 -11
-8 0 -10 32 -1 28 -3 78 -5 112 -2 50 0 61 12 56 8 -3 14 0 14 6 0 6 -8 11
-18 11 -10 0 -19 6 -20 13 -1 6 -3 27 -5 45 -7 64 -15 41 -22 -65z"/>
<path d="M5070 7481 c0 -5 5 -13 10 -16 6 -3 10 -2 10 4 0 5 -4 13 -10 16 -5
3 -10 2 -10 -4z"/>
<path d="M2893 7425 c0 -22 2 -30 4 -17 2 12 2 30 0 40 -3 9 -5 -1 -4 -23z"/>
<path d="M2842 7442 c-9 -6 -10 -19 -4 -48 l9 -39 4 48 c2 26 4 47 4 47 0 0
-6 -4 -13 -8z"/>
<path d="M5102 7320 c0 -14 2 -19 5 -12 2 6 2 18 0 25 -3 6 -5 1 -5 -13z"/>
<path d="M2831 7284 c1 -16 5 -42 9 -59 6 -23 7 -17 5 23 -4 56 -16 88 -14 36z"/>
<path d="M2894 7245 c-3 -20 -4 -39 0 -42 3 -4 6 6 6 21 0 16 4 25 10 21 6 -3
10 3 10 14 0 34 -19 24 -26 -14z"/>
<path d="M3392 7190 c0 -19 2 -27 5 -17 2 9 2 25 0 35 -3 9 -5 1 -5 -18z"/>
<path d="M2895 7145 c9 -86 25 -121 18 -40 -3 39 -10 74 -15 80 -5 6 -7 -10
-3 -40z"/>
<path d="M2830 7148 c0 -13 5 -30 10 -38 7 -11 10 -7 10 17 0 17 -4 35 -10 38
-6 3 -10 -4 -10 -17z"/>
<path d="M5121 7144 c0 -11 3 -14 6 -6 3 7 2 16 -1 19 -3 4 -6 -2 -5 -13z"/>
<path d="M5126 7095 c-9 -26 -7 -32 5 -12 6 10 9 21 6 23 -2 3 -7 -2 -11 -11z"/>
<path d="M2837 7053 c8 -50 13 -55 13 -10 0 20 -4 38 -9 42 -6 3 -7 -10 -4
-32z"/>
<path d="M2913 6955 c0 -22 2 -30 4 -17 2 12 2 30 0 40 -3 9 -5 -1 -4 -23z"/>
<path d="M5150 6916 c0 -2 8 -10 18 -17 15 -13 16 -12 3 4 -13 16 -21 21 -21
13z"/>
<path d="M2912 6880 c0 -19 2 -27 5 -17 2 9 2 25 0 35 -3 9 -5 1 -5 -18z"/>
<path d="M5170 6871 c0 -5 5 -13 10 -16 6 -3 10 -2 10 4 0 5 -4 13 -10 16 -5
3 -10 2 -10 -4z"/>
<path d="M5140 6860 c0 -5 5 -10 10 -10 6 0 10 5 10 10 0 6 -4 10 -10 10 -5 0
-10 -4 -10 -10z"/>
<path d="M5205 6758 c3 -46 10 -134 16 -196 6 -63 8 -121 5 -129 -4 -9 -1 -30
6 -49 9 -25 9 -36 0 -47 -10 -12 -8 -13 13 -9 14 2 28 9 31 14 5 8 13 98 16
195 2 34 14 34 27 0 5 -13 10 -16 15 -9 7 12 -21 45 -45 55 -9 4 -10 8 -4 14
16 13 16 91 0 123 -8 16 -24 35 -34 42 -11 8 -23 26 -26 41 -15 56 -24 35 -20
-45z"/>
<path d="M5168 6765 c2 -24 10 -49 18 -56 10 -8 14 -8 14 0 0 6 -4 11 -10 11
-5 0 -10 20 -10 45 0 25 -3 45 -8 45 -4 0 -6 -20 -4 -45z"/>
<path d="M5142 6780 c0 -14 2 -19 5 -12 2 6 2 18 0 25 -3 6 -5 1 -5 -13z"/>
<path d="M5152 6720 c0 -14 2 -19 5 -12 2 6 2 18 0 25 -3 6 -5 1 -5 -13z"/>
<path d="M5310 6620 c0 -5 5 -10 11 -10 5 0 7 5 4 10 -3 6 -8 10 -11 10 -2 0
-4 -4 -4 -10z"/>
<path d="M4917 6523 c-5 -12 -10 -99 -4 -93 5 6 16 100 11 100 -2 0 -5 -3 -7
-7z"/>
<path d="M4996 6521 c-3 -4 -16 -7 -30 -6 -18 2 -23 -1 -21 -13 2 -10 4 -19 4
-21 1 -3 6 0 13 7 14 14 32 16 24 3 -4 -5 8 -4 25 2 20 8 25 13 15 15 -9 2
-14 8 -11 13 4 5 2 9 -4 9 -5 0 -12 -4 -15 -9z"/>
<path d="M5330 6501 c-9 -17 -7 -19 11 -16 16 3 24 -5 40 -38 10 -23 16 -31
13 -17 -9 38 -33 72 -46 64 -8 -5 -9 -2 -5 9 9 23 0 21 -13 -2z"/>
<path d="M5296 6493 c-6 -14 -5 -15 5 -6 7 7 10 15 7 18 -3 3 -9 -2 -12 -12z"/>
<path d="M5202 6460 c0 -14 2 -19 5 -12 2 6 2 18 0 25 -3 6 -5 1 -5 -13z"/>
<path d="M5062 6420 c0 -8 4 -26 8 -40 6 -20 8 -21 8 -5 0 11 -3 29 -8 40 -5
12 -8 14 -8 5z"/>
<path d="M5356 6403 c-6 -14 -5 -15 5 -6 7 7 10 15 7 18 -3 3 -9 -2 -12 -12z"/>
<path d="M4866 6368 c0 -32 -3 -39 -16 -35 -11 3 -16 -3 -17 -17 -1 -12 1 -15
4 -8 11 28 23 8 23 -39 0 -49 -1 -51 -25 -47 -16 3 -25 1 -25 -7 0 -9 11 -10
43 -5 23 5 77 14 119 21 45 7 83 18 90 27 11 13 10 14 -9 4 -12 -7 -35 -12
-52 -12 -16 0 -42 -5 -56 -10 l-27 -10 4 49 c1 27 0 47 -4 44 -5 -2 -8 14 -8
37 0 30 3 39 13 34 6 -4 9 -4 5 1 -4 4 -20 9 -35 10 -26 2 -28 0 -27 -37z"/>
<path d="M5170 6359 c-4 -40 -3 -45 15 -47 12 -1 15 2 8 6 -6 4 -13 25 -15 47
l-3 40 -5 -46z"/>
<path d="M4660 6302 c0 -64 -4 -89 -12 -90 -7 0 -49 -8 -93 -16 -44 -9 -81
-16 -82 -16 -1 0 -4 10 -6 23 -3 12 -4 6 -4 -13 2 -32 5 -35 36 -38 18 -2 64
2 102 8 l69 12 0 109 c0 60 -2 109 -5 109 -3 0 -5 -40 -5 -88z"/>
<path d="M4628 6373 c7 -3 16 -2 19 1 4 3 -2 6 -13 5 -11 0 -14 -3 -6 -6z"/>
<path d="M5204 6361 c0 -11 5 -17 14 -14 14 6 12 25 -4 30 -5 2 -10 -5 -10
-16z"/>
<path d="M5315 6370 c-25 -11 1 -11 35 0 20 6 21 8 5 8 -11 0 -29 -3 -40 -8z"/>
<path d="M4520 6350 c-15 -5 -18 -8 -8 -9 9 -1 25 -4 35 -7 15 -5 16 -4 3 6
-12 9 -5 10 30 6 33 -4 38 -3 20 3 -31 11 -48 11 -80 1z"/>
<path d="M4802 6313 c-1 -27 2 -54 7 -62 5 -8 7 9 5 44 -4 72 -10 81 -12 18z"/>
<path d="M4451 6308 c1 -22 3 -26 6 -13 3 11 10 26 15 33 8 9 6 12 -6 12 -12
0 -16 -9 -15 -32z"/>
<path d="M5051 6335 c1 -19 18 -51 18 -35 0 8 -4 22 -9 30 -5 8 -9 11 -9 5z"/>
<path d="M4367 6323 c29 -4 32 -7 36 -46 l4 -42 1 48 2 47 -37 -2 c-37 -1 -37
-1 -6 -5z"/>
<path d="M4508 6323 c7 -3 16 -2 19 1 4 3 -2 6 -13 5 -11 0 -14 -3 -6 -6z"/>
<path d="M4258 6313 c12 -2 32 -2 45 0 12 2 2 4 -23 4 -25 0 -35 -2 -22 -4z"/>
<path d="M3670 6281 c0 -34 -2 -36 -31 -21 -13 7 -19 7 -19 0 0 -5 6 -10 14
-10 9 0 12 -9 9 -27 -3 -21 -2 -24 6 -13 5 8 7 18 5 22 -3 4 0 8 5 8 6 0 11
-11 11 -24 0 -17 7 -26 26 -30 15 -4 32 -2 37 3 6 6 24 11 39 11 15 0 28 5 28
10 0 6 10 11 23 11 16 1 18 2 5 6 -19 5 -25 33 -8 33 6 0 10 7 10 15 0 13 14
15 90 12 50 -2 90 0 90 4 0 5 -42 9 -94 9 -82 0 -95 -2 -99 -17 -4 -15 -5 -15
-6 2 -1 18 -9 20 -71 23 l-70 3 0 -30z"/>
<path d="M3625 6290 c3 -5 14 -10 23 -10 15 0 15 2 2 10 -20 13 -33 13 -25 0z"/>
<path d="M3870 6270 c0 -5 5 -10 11 -10 5 0 7 5 4 10 -3 6 -8 10 -11 10 -2 0
-4 -4 -4 -10z"/>
<path d="M3928 6263 c6 -2 18 -2 25 0 6 3 1 5 -13 5 -14 0 -19 -2 -12 -5z"/>
<path d="M4022 6260 c0 -8 4 -26 8 -40 6 -20 8 -21 8 -5 0 11 -3 29 -8 40 -5
12 -8 14 -8 5z"/>
<path d="M4836 6245 c-3 -8 -1 -15 4 -15 6 0 10 7 10 15 0 8 -2 15 -4 15 -2 0
-6 -7 -10 -15z"/>
<path d="M3607 6235 c3 -10 0 -21 -8 -26 -11 -7 -11 -9 4 -9 18 0 24 34 7 45
-6 4 -7 -1 -3 -10z"/>
<path d="M3578 6223 c7 -3 16 -2 19 1 4 3 -2 6 -13 5 -11 0 -14 -3 -6 -6z"/>
<path d="M4560 6223 c-19 -3 -39 -8 -43 -12 -5 -5 18 -4 50 1 90 14 86 22 -7
11z"/>
<path d="M2847 6196 c-6 -15 1 -26 15 -26 11 0 10 27 -1 34 -5 3 -11 0 -14 -8z"/>
<path d="M3528 6203 c6 -2 18 -2 25 0 6 3 1 5 -13 5 -14 0 -19 -2 -12 -5z"/>
<path d="M2950 6172 c0 -5 7 -15 15 -22 8 -7 15 -9 15 -6 0 4 -7 14 -15 22 -8
9 -15 11 -15 6z"/>
<path d="M3818 6173 c7 -3 16 -2 19 1 4 3 -2 6 -13 5 -11 0 -14 -3 -6 -6z"/>
<path d="M5565 6170 c-11 -4 -23 -6 -27 -3 -5 2 -8 0 -8 -6 0 -6 -14 -8 -32
-6 l-33 5 35 -14 c34 -13 35 -14 10 -20 -28 -8 -124 -16 -185 -17 l-40 0 34
-10 c24 -7 41 -7 55 0 12 6 32 10 46 9 14 0 48 1 77 2 43 3 58 -2 99 -28 27
-18 40 -32 30 -32 -9 0 -19 -7 -22 -15 -4 -8 -15 -15 -25 -15 -26 0 -24 -26 4
-44 41 -27 117 -48 149 -41 17 4 28 3 25 -2 -3 -4 13 -7 35 -5 22 3 45 -1 51
-7 8 -8 6 -11 -8 -12 -17 0 -17 -2 3 -10 14 -5 30 -5 40 0 11 6 20 3 31 -11 9
-10 25 -18 36 -18 55 3 112 7 125 8 13 2 13 3 0 12 -10 6 -11 10 -2 10 6 0 12
4 12 10 0 5 -7 7 -16 3 -8 -3 -13 -12 -10 -19 3 -8 -1 -14 -9 -14 -18 0 -15
20 5 38 8 8 9 11 3 7 -7 -3 -13 -1 -13 5 0 6 -30 25 -66 42 -36 17 -79 44 -96
60 -35 33 -65 51 -91 55 -24 4 -74 30 -82 43 -16 26 -109 52 -140 40z m372
-276 c-3 -3 -12 -4 -19 -1 -8 3 -5 6 6 6 11 1 17 -2 13 -5z"/>
<path d="M5405 6140 c27 -12 43 -12 25 0 -8 5 -22 9 -30 9 -10 0 -8 -3 5 -9z"/>
<path d="M5343 6133 c9 -2 23 -2 30 0 6 3 -1 5 -18 5 -16 0 -22 -2 -12 -5z"/>
<path d="M5468 6133 c7 -3 16 -2 19 1 4 3 -2 6 -13 5 -11 0 -14 -3 -6 -6z"/>
<path d="M5225 6120 l-60 -7 55 0 c30 -1 66 3 80 7 30 10 13 10 -75 0z"/>
<path d="M5112 6101 c-11 -7 -11 -9 0 -14 9 -3 15 1 15 9 0 8 -1 14 -1 14 -1
0 -7 -4 -14 -9z"/>
<path d="M5033 6093 c9 -2 23 -2 30 0 6 3 -1 5 -18 5 -16 0 -22 -2 -12 -5z"/>
<path d="M5148 6093 c6 -2 18 -2 25 0 6 3 1 5 -13 5 -14 0 -19 -2 -12 -5z"/>
<path d="M5240 6090 c14 -4 36 -8 50 -8 22 0 22 1 -5 8 -16 4 -39 8 -50 8 -16
0 -15 -2 5 -8z"/>
<path d="M4925 6080 c-3 -6 1 -7 10 -4 11 5 14 2 9 -10 -5 -14 3 -16 57 -15
35 1 75 4 88 8 21 5 22 8 8 19 -12 10 -16 10 -20 -1 -4 -10 -24 -15 -66 -16
-50 -1 -59 2 -55 14 7 17 -21 21 -31 5z"/>
<path d="M2710 6072 c-8 -3 -49 -26 -90 -52 -41 -25 -105 -61 -142 -80 -74
-37 -82 -48 -67 -86 9 -26 9 -27 -28 -21 -30 4 -17 -4 57 -39 110 -52 145 -63
340 -104 112 -24 187 -33 327 -40 100 -5 210 -14 245 -20 38 -7 102 -9 163 -5
55 3 255 8 445 10 190 2 368 7 395 9 45 5 47 4 20 -5 -16 -6 -87 -12 -157 -13
-80 0 -121 -4 -111 -10 22 -12 287 0 408 18 55 9 129 20 165 26 36 5 84 12
108 16 82 12 35 14 -82 4 -109 -10 -249 -2 -325 17 -23 6 -24 7 -6 14 11 4 56
9 100 10 79 3 79 3 18 6 -35 2 -63 9 -63 14 0 6 -7 26 -16 44 -15 32 -16 32
-57 23 -44 -10 -141 -7 -447 12 -102 7 -248 13 -325 14 -129 2 -351 16 -517
32 -42 4 -68 11 -68 18 0 7 -6 21 -14 31 -12 17 -18 18 -71 6 -66 -15 -64 -16
-90 67 -17 52 -19 54 -46 48 -24 -4 -29 -2 -29 13 0 21 -17 31 -40 23z m1727
-428 c-3 -3 -12 -4 -19 -1 -8 3 -5 6 6 6 11 1 17 -2 13 -5z"/>
<path d="M5145 6070 c-42 -11 -1 -11 50 -1 34 7 35 9 10 9 -16 0 -43 -4 -60
-8z"/>
<path d="M5620 5915 c0 -8 2 -15 4 -15 2 0 6 7 10 15 3 8 1 15 -4 15 -6 0 -10
-7 -10 -15z"/>
<path d="M5658 5912 c-26 -5 -22 -19 5 -16 12 1 40 3 61 3 22 1 37 3 35 5 -7
6 -83 13 -101 8z"/>
<path d="M5700 5879 c-24 -7 -24 -7 5 -8 l30 -2 -30 -13 c-75 -32 -213 -57
-315 -57 -25 0 -30 -3 -20 -9 21 -13 3 -12 -22 1 -15 8 -19 8 -14 0 11 -17
-29 -29 -163 -47 -146 -20 -209 -36 -111 -29 280 20 526 58 555 85 16 14 30
17 66 13 39 -4 50 -2 68 16 11 11 30 21 41 21 11 0 20 5 20 11 0 6 -7 8 -17 5
-9 -4 -20 -1 -25 6 -6 10 -8 10 -8 1 0 -7 -5 -13 -11 -13 -5 0 -8 4 -5 9 9 13
-15 19 -44 10z"/>
<path d="M5798 5883 c7 -3 16 -2 19 1 4 3 -2 6 -13 5 -11 0 -14 -3 -6 -6z"/>
<path d="M5576 5856 c-14 -14 -15 -18 -4 -14 9 4 21 1 27 -5 8 -8 11 -8 11 2
0 8 6 11 16 7 9 -4 13 -2 8 5 -4 8 1 9 17 4 18 -5 21 -4 9 4 -8 6 -23 8 -34 5
-10 -4 -16 -2 -13 3 11 18 -18 9 -37 -11z"/>
<path d="M5855 5870 c-3 -5 -2 -10 4 -10 5 0 13 5 16 10 3 6 2 10 -4 10 -5 0
-13 -4 -16 -10z"/>
<path d="M6040 5809 c-14 -6 -54 -14 -90 -19 -92 -13 -279 -47 -320 -59 -47
-13 -163 -27 -345 -41 -82 -6 -188 -20 -235 -30 -47 -10 -125 -22 -175 -25
-49 -4 -110 -12 -135 -18 -25 -6 -135 -11 -245 -12 -203 -2 -335 -11 -335 -25
0 -4 111 -10 246 -14 199 -6 264 -4 342 8 53 9 154 25 224 36 70 11 147 20
170 20 24 0 75 7 113 16 39 8 140 26 225 38 246 38 678 134 600 135 -8 0 -26
-5 -40 -10z"/>
<path d="M4620 5740 l-65 -7 80 0 c44 -1 103 2 130 7 l50 7 -65 0 c-36 0 -94
-3 -130 -7z"/>
<path d="M3923 5623 c26 -2 67 -2 90 0 23 2 2 3 -48 3 -49 0 -68 -1 -42 -3z"/>
<path d="M2588 5415 c-2 -3 8 -69 23 -147 28 -147 96 -565 175 -1073 24 -159
73 -436 109 -615 35 -179 78 -401 95 -495 17 -93 40 -222 51 -285 12 -63 29
-133 39 -155 l18 -40 -5 65 c-2 36 -11 101 -18 145 -8 44 -17 103 -20 130 -9
66 -96 508 -139 704 -19 86 -62 318 -95 516 -126 744 -215 1241 -225 1253 -2
1 -5 0 -8 -3z"/>
<path d="M2651 5404 c0 -11 3 -14 6 -6 3 7 2 16 -1 19 -3 4 -6 -2 -5 -13z"/>
<path d="M2657 5373 c-4 -3 -6 -20 -6 -37 l1 -31 7 30 c5 24 10 10 24 -69 13
-76 15 -102 6 -110 -9 -8 -10 -5 -6 12 3 12 1 22 -4 22 -5 0 -9 -10 -9 -22 1
-25 28 -91 29 -70 1 6 6 12 12 12 6 0 8 -9 4 -20 -4 -11 -2 -20 4 -20 20 0 11
37 -11 53 -13 8 -19 19 -15 23 4 5 13 2 18 -6 8 -12 9 -9 5 10 -3 14 -8 45
-12 70 -7 48 -31 151 -37 157 -2 1 -7 0 -10 -4z"/>
<path d="M2660 5231 c0 -11 4 -22 9 -25 4 -3 6 6 3 19 -5 30 -12 33 -12 6z"/>
<path d="M2697 5035 c3 -22 7 -42 9 -44 8 -9 2 45 -6 64 -7 14 -8 8 -3 -20z"/>
<path d="M2726 5045 c-9 -26 -7 -32 5 -12 6 10 9 21 6 23 -2 3 -7 -2 -11 -11z"/>
<path d="M2741 4988 c-1 -15 -6 -30 -12 -34 -8 -4 -9 1 -4 17 5 18 4 21 -4 13
-9 -9 -7 -30 8 -90 11 -43 22 -92 24 -109 4 -27 4 -27 6 7 0 20 6 40 11 43 6
3 10 16 10 28 -1 22 -1 21 -14 -2 -13 -24 -14 -23 -25 28 -6 29 -8 58 -4 64 5
7 11 -7 14 -33 l6 -45 1 45 c0 25 -4 56 -8 70 l-8 25 -1 -27z"/>
<path d="M2778 4810 c-4 -8 -6 -22 -6 -30 0 -8 -3 -33 -6 -55 l-6 -40 15 40
c15 37 17 120 3 85z"/>
<path d="M2790 4694 c0 -27 -4 -43 -10 -39 -6 3 -10 -4 -10 -17 1 -22 1 -22
15 -4 14 18 22 106 10 106 -3 0 -5 -21 -5 -46z"/>
<path d="M5592 4640 c0 -14 2 -19 5 -12 2 6 2 18 0 25 -3 6 -5 1 -5 -13z"/>
<path d="M2791 4606 c-8 -13 -11 -30 -8 -38 3 -7 6 -3 6 10 1 13 5 20 11 17 6
-3 10 3 10 14 0 27 -4 26 -19 -3z"/>
<path d="M5582 4590 c0 -14 2 -19 5 -12 2 6 2 18 0 25 -3 6 -5 1 -5 -13z"/>
<path d="M2811 4540 c-1 -20 -3 -22 -11 -10 -8 12 -10 10 -10 -10 0 -22 1 -23
16 -8 9 8 14 24 11 34 -4 15 -5 13 -6 -6z"/>
<path d="M5571 4544 c0 -11 3 -14 6 -6 3 7 2 16 -1 19 -3 4 -6 -2 -5 -13z"/>
<path d="M2821 4482 c0 -13 -5 -20 -11 -17 -6 4 -10 -6 -10 -22 0 -25 1 -26
16 -11 10 9 14 26 11 44 -3 23 -4 24 -6 6z"/>
<path d="M2835 4369 c3 -36 9 -76 15 -90 8 -19 8 -13 4 26 -4 28 -10 68 -14
90 -7 32 -8 27 -5 -26z"/>
<path d="M2812 4370 c0 -19 2 -27 5 -17 2 9 2 25 0 35 -3 9 -5 1 -5 -18z"/>
<path d="M2821 4294 c0 -11 3 -14 6 -6 3 7 2 16 -1 19 -3 4 -6 -2 -5 -13z"/>
<path d="M2831 4254 c0 -11 3 -14 6 -6 3 7 2 16 -1 19 -3 4 -6 -2 -5 -13z"/>
<path d="M2858 4211 c-2 -21 0 -37 4 -35 11 7 10 -10 -1 -21 -5 -6 -7 -23 -4
-40 6 -26 7 -27 15 -10 6 13 7 5 4 -26 -5 -41 4 -96 21 -139 3 -8 5 -20 4 -27
-1 -6 3 -14 8 -18 6 -3 8 -12 5 -19 -3 -8 -1 -17 5 -21 14 -8 14 -9 -5 97 -10
52 -20 84 -25 77 -4 -7 -7 12 -6 42 1 50 -11 170 -18 177 -2 2 -4 -15 -7 -37z"/>
<path d="M2842 4210 c0 -14 2 -19 5 -12 2 6 2 18 0 25 -3 6 -5 1 -5 -13z"/>
<path d="M5491 4164 c0 -11 3 -14 6 -6 3 7 2 16 -1 19 -3 4 -6 -2 -5 -13z"/>
<path d="M5476 4115 c-9 -26 -7 -32 5 -12 6 10 9 21 6 23 -2 3 -7 -2 -11 -11z"/>
<path d="M5442 3965 c-7 -37 -11 -69 -9 -71 6 -7 30 112 25 127 -2 6 -10 -18
-16 -56z"/>
<path d="M5421 3864 c0 -11 3 -14 6 -6 3 7 2 16 -1 19 -3 4 -6 -2 -5 -13z"/>
<path d="M2925 3805 c4 -22 14 -69 20 -105 7 -36 13 -55 14 -43 1 28 -27 174
-35 182 -4 3 -3 -12 1 -34z"/>
<path d="M2962 3610 c0 -14 2 -19 5 -12 2 6 2 18 0 25 -3 6 -5 1 -5 -13z"/>
<path d="M3081 3502 c-1 -53 52 -239 89 -312 30 -60 143 -129 253 -156 34 -8
85 -21 112 -29 49 -15 185 -37 299 -50 32 -4 54 -10 50 -15 -5 -4 -38 -3 -74
2 -42 6 -96 6 -150 0 l-85 -9 126 -1 c69 0 142 -4 162 -7 24 -5 37 -3 37 3 0
7 85 11 263 11 144 1 323 6 397 12 74 7 156 12 182 13 25 0 42 3 38 6 -12 8
147 43 164 37 8 -3 13 -16 12 -31 -2 -14 1 -23 6 -20 5 3 7 12 4 20 -3 8 0 14
7 14 8 0 8 3 -2 9 -10 7 -10 10 -1 16 7 4 16 2 20 -5 5 -8 9 -7 13 4 4 9 15
16 25 16 41 0 92 32 141 87 28 31 51 64 51 72 0 9 3 27 7 41 4 20 0 16 -22
-15 -75 -109 -148 -142 -420 -191 -175 -31 -193 -32 -725 -21 -270 6 -456 19
-515 37 -16 5 -57 14 -90 21 -77 15 -217 80 -238 110 -9 13 -24 46 -33 74 -9
27 -27 79 -42 115 -14 36 -33 94 -43 130 l-17 65 -1 -53z"/>
<path d="M3230 3390 c-9 -6 -10 -10 -3 -10 6 0 15 5 18 10 8 12 4 12 -15 0z"/>
<path d="M5173 3393 c-7 -2 -13 -9 -13 -15 0 -7 5 -7 13 1 8 6 18 7 22 3 5 -4
5 -1 1 6 -4 6 -8 12 -9 11 -1 0 -8 -3 -14 -6z"/>
<path d="M5170 3341 c0 -6 4 -13 10 -16 6 -3 7 1 4 9 -7 18 -14 21 -14 7z"/>
<path d="M5230 3320 c8 -5 20 -10 25 -10 6 0 3 5 -5 10 -8 5 -19 10 -25 10 -5
0 -3 -5 5 -10z"/>
<path d="M3047 3229 c3 -52 10 -95 14 -97 4 -2 6 -20 4 -40 -3 -20 -2 -28 1
-17 3 11 10 24 14 29 5 5 2 22 -6 38 -8 16 -14 48 -14 71 2 41 -7 97 -16 106
-2 2 -1 -38 3 -90z"/>
<path d="M3387 3289 c12 -12 24 -21 27 -18 2 2 -8 13 -22 23 l-27 19 22 -24z"/>
<path d="M5139 3277 c6 -8 7 -18 3 -22 -4 -5 -1 -5 6 -1 10 6 10 11 1 22 -6 8
-14 14 -16 14 -3 0 0 -6 6 -13z"/>
<path d="M3585 3251 c-3 -5 -2 -12 3 -15 5 -3 9 1 9 9 0 17 -3 19 -12 6z"/>
<path d="M3713 3243 c0 -17 5 -16 23 1 12 13 12 15 -4 13 -10 0 -19 -7 -19
-14z"/>
<path d="M3254 3228 c22 -33 22 -33 22 -8 0 10 -2 17 -5 15 -2 -3 -11 1 -19 8
-11 9 -11 4 2 -15z"/>
<path d="M5165 3240 c-3 -6 1 -7 9 -4 18 7 21 14 7 14 -6 0 -13 -4 -16 -10z"/>
<path d="M5000 3236 c0 -2 9 -6 20 -9 11 -3 18 -1 14 4 -5 9 -34 13 -34 5z"/>
<path d="M3071 3223 c-1 -6 9 -42 22 -80 13 -38 22 -74 19 -81 -2 -6 1 -12 7
-12 6 0 11 -5 11 -11 0 -5 -6 -7 -12 -3 -10 6 -10 4 0 -7 20 -22 14 -34 -8
-14 -20 18 -24 13 -12 -17 6 -14 11 -14 29 -5 l21 12 -38 115 c-21 63 -39 110
-39 103z"/>
<path d="M3525 3210 c-3 -6 1 -7 9 -4 18 7 21 14 7 14 -6 0 -13 -4 -16 -10z"/>
<path d="M3707 3213 c-4 -3 -7 -11 -7 -17 0 -7 3 -7 8 0 4 7 16 14 27 17 19 5
19 5 -1 6 -11 0 -24 -2 -27 -6z"/>
<path d="M5170 3205 c-7 -8 -17 -12 -23 -8 -6 3 -7 1 -3 -5 8 -14 33 -5 40 14
7 18 2 18 -14 -1z"/>
<path d="M3610 3180 c-8 -5 -10 -10 -5 -10 6 0 17 5 25 10 8 5 11 10 5 10 -5
0 -17 -5 -25 -10z"/>
<path d="M4250 3156 c0 -8 5 -18 12 -22 7 -5 8 -3 3 6 -4 7 -2 16 6 21 11 7
10 9 -3 9 -10 0 -18 -6 -18 -14z"/>
<path d="M4290 3130 c-9 -6 -10 -10 -3 -10 6 0 15 5 18 10 8 12 4 12 -15 0z"/>
<path d="M4418 3133 c12 -2 32 -2 45 0 12 2 2 4 -23 4 -25 0 -35 -2 -22 -4z"/>
<path d="M4765 3121 c-3 -5 -2 -12 3 -15 5 -3 9 1 9 9 0 17 -3 19 -12 6z"/>
<path d="M1180 3096 c-63 -18 -159 -63 -199 -93 -48 -37 -111 -138 -111 -180
0 -58 15 -78 100 -134 59 -39 106 -54 215 -69 39 -5 102 -16 140 -25 144 -30
328 -12 428 42 52 29 109 90 126 136 28 74 -4 158 -83 216 -64 47 -104 64
-159 64 -23 0 -98 0 -167 0 -69 1 -161 1 -205 2 -44 0 -98 -4 -120 -8 l-40 -8
40 22 c44 25 136 31 250 17 58 -7 57 -7 -20 12 -94 22 -133 23 -195 6z m550
-114 c32 -20 100 -84 100 -94 0 -12 -48 -10 -55 2 -3 6 -21 10 -38 10 -18 0
-43 7 -57 15 -14 8 -43 23 -65 35 -32 15 -35 20 -17 20 12 0 44 -11 70 -24 26
-13 58 -27 72 -31 21 -5 18 0 -20 37 -25 24 -55 48 -65 55 -16 10 -13 10 15 1
19 -6 46 -18 60 -26z m-467 -83 c48 -25 192 -67 292 -85 l70 -13 -100 6 c-105
5 -220 36 -284 75 -18 12 -47 24 -65 28 l-31 8 38 1 c21 1 57 -9 80 -20z m580
-49 c12 -46 -22 -113 -78 -156 -35 -26 -58 -27 -38 -2 6 7 14 23 17 35 7 21 6
21 -40 7 -67 -20 -180 -18 -227 5 l-39 18 99 -4 c60 -3 123 1 163 9 60 13 66
16 75 46 5 18 16 33 25 33 11 1 11 2 -2 6 -28 7 -21 23 11 23 20 0 30 -6 34
-20z"/>
<path d="M4500 3091 c0 -6 4 -13 10 -16 6 -3 7 1 4 9 -7 18 -14 21 -14 7z"/>
<path d="M3091 3074 c0 -11 3 -14 6 -6 3 7 2 16 -1 19 -3 4 -6 -2 -5 -13z"/>
<path d="M4780 3070 c0 -5 5 -10 11 -10 5 0 7 5 4 10 -3 6 -8 10 -11 10 -2 0
-4 -4 -4 -10z"/>
<path d="M4490 3056 c0 -2 7 -7 16 -10 8 -3 12 -2 9 4 -6 10 -25 14 -25 6z"/>
<path d="M4108 3033 c6 -2 18 -2 25 0 6 3 1 5 -13 5 -14 0 -19 -2 -12 -5z"/>
<path d="M5253 3012 c-6 -15 -14 -46 -17 -69 -3 -23 -9 -50 -12 -60 -5 -16 -4
-16 5 -2 11 18 44 149 39 155 -2 1 -9 -9 -15 -24z"/>
<path d="M4861 2983 c-44 -11 -59 -18 -50 -24 8 -5 21 -9 29 -9 13 0 13 1 0
11 -12 8 -9 10 13 6 15 -2 27 0 27 4 0 5 14 9 30 9 17 0 30 5 30 10 0 12 3 12
-79 -7z"/>
<path d="M6303 2989 c-73 -9 -178 -49 -250 -95 -58 -37 -143 -144 -143 -180 0
-69 81 -169 155 -194 70 -23 231 -7 380 38 72 21 138 43 149 47 17 7 17 5 10
-26 -11 -42 -8 -119 7 -172 14 -51 63 -98 148 -140 85 -42 169 -43 290 -3 143
47 221 141 191 232 -18 54 -108 145 -215 217 -79 53 -95 60 -134 59 -24 -1
-53 -4 -63 -8 -16 -5 -18 1 -18 38 0 62 -46 133 -103 158 -43 19 -211 41 -296
39 -25 -1 -74 -5 -108 -10z m-142 -75 c-41 -19 -90 -46 -109 -60 -33 -26 -92
-99 -92 -116 0 -4 17 -8 38 -8 31 0 48 9 91 45 60 52 74 60 116 69 l30 6 -31
-17 c-30 -17 -54 -41 -102 -102 -30 -38 -172 -51 -172 -15 0 17 91 126 132
158 39 29 136 76 158 76 8 -1 -18 -16 -59 -36z m584 -4 c3 -5 1 -10 -4 -10 -6
0 -11 5 -11 10 0 6 2 10 4 10 3 0 8 -4 11 -10z m-305 -34 c0 -3 -20 -25 -43
-50 -45 -46 -81 -66 -120 -66 -12 0 -35 -7 -51 -15 -16 -9 -31 -14 -33 -12 -5
6 36 31 77 47 50 19 135 67 150 85 12 15 20 19 20 11z m140 -87 c-60 -51 -115
-79 -176 -89 -32 -6 -71 -12 -86 -15 -50 -8 -29 11 53 50 65 30 211 82 239 84
3 0 -11 -13 -30 -30z m544 -178 c92 -86 115 -146 81 -211 -22 -43 -26 -37 -8
10 13 33 14 47 4 80 -13 45 -92 129 -149 160 -20 11 -53 33 -72 50 -31 27 -27
26 35 -11 39 -23 87 -58 109 -78z m-1174 46 c0 -18 -2 -19 -10 -7 -13 20 -13
43 0 35 6 -3 10 -16 10 -28z m770 -13 c-18 -46 -11 -130 15 -200 32 -85 32
-101 -1 -44 -50 88 -67 215 -34 255 20 24 30 17 20 -11z m234 -189 c13 -27 27
-61 31 -75 5 -21 1 -19 -29 15 -20 22 -39 51 -42 65 -4 14 -15 34 -24 45 -10
11 -25 36 -35 55 l-17 35 46 -45 c26 -25 57 -67 70 -95z"/>
<path d="M3140 2976 c0 -8 -4 -18 -10 -21 -6 -3 -7 1 -4 12 5 16 4 16 -6 -1
-10 -15 -9 -20 1 -27 8 -5 11 -9 6 -9 -4 0 -1 -10 7 -22 12 -20 31 -96 26
-107 -1 -2 3 -7 8 -10 5 -3 17 -44 26 -91 12 -57 27 -99 48 -130 17 -25 27
-42 23 -38 -5 4 -15 2 -23 -5 -13 -10 -15 -9 -9 6 4 11 1 28 -8 40 -13 18 -15
19 -15 4 0 -9 4 -17 10 -17 5 0 7 -6 4 -13 -2 -7 2 -29 11 -48 14 -29 15 -30
10 -6 -3 15 -4 27 -2 27 11 0 58 -83 54 -94 -3 -7 4 -12 17 -13 11 0 15 1 9 4
-7 3 -13 9 -13 15 0 6 7 5 16 -3 8 -7 13 -21 11 -31 -7 -24 2 -23 11 2 5 14
11 17 22 9 13 -8 13 -11 -3 -23 -16 -12 -16 -14 -1 -20 9 -3 20 -4 25 0 5 3 9
1 9 -5 0 -12 69 -33 82 -25 4 3 6 10 2 15 -6 10 40 2 61 -9 5 -4 28 -7 50 -8
416 -19 503 -21 650 -10 95 6 155 14 147 19 -7 5 -64 6 -125 2 -108 -7 -471
10 -492 23 -5 3 -25 5 -45 3 -20 -1 -49 3 -65 9 l-30 12 23 11 c18 8 30 7 52
-6 32 -19 44 -22 35 -7 -8 13 -4 13 38 -5 20 -8 62 -14 94 -14 l58 2 -70 8
c-38 5 -79 14 -91 20 -11 5 -24 9 -30 8 -5 -1 -20 1 -34 5 -14 3 -52 2 -85 -3
-39 -5 -48 -9 -27 -10 17 0 32 -5 32 -10 0 -17 -136 17 -232 58 -63 27 -139
128 -124 166 4 13 -17 116 -29 134 -9 16 4 53 17 45 6 -4 2 7 -8 25 -16 27
-20 29 -30 16 -14 -19 -28 -20 -20 0 3 8 1 15 -4 15 -16 0 -23 62 -9 71 13 8
5 13 -14 10 -5 -1 -6 3 -2 8 3 6 -3 19 -15 31 -15 15 -20 16 -20 6z m95 -190
c-4 -27 -3 -46 4 -50 5 -4 7 -14 4 -23 -4 -11 -10 -3 -19 27 -8 28 -9 51 -4
66 15 38 22 28 15 -20z m31 -164 c-9 -8 -13 0 -20 38 l-6 35 16 -34 c8 -18 13
-36 10 -39z m145 -236 c5 3 9 1 9 -4 0 -5 -11 -9 -25 -9 -21 0 -23 2 -13 14 8
10 14 11 16 4 2 -6 8 -9 13 -5z m43 -20 c7 3 13 -2 13 -10 0 -11 -5 -13 -19
-5 -10 5 -18 15 -17 22 0 9 2 9 5 0 3 -7 11 -10 18 -7z"/>
<path d="M3337 2950 c-6 -22 -2 -23 28 -10 l20 9 -20 1 -20 1 20 9 c19 8 19 9
-1 9 -14 1 -24 -7 -27 -19z"/>
<path d="M4895 2960 c3 -5 8 -10 11 -10 2 0 4 5 4 10 0 6 -5 10 -11 10 -5 0
-7 -4 -4 -10z"/>
<path d="M3395 2950 c-3 -5 1 -10 10 -10 9 0 13 5 10 10 -3 6 -8 10 -10 10 -2
0 -7 -4 -10 -10z"/>
<path d="M3438 2953 c6 -2 18 -2 25 0 6 3 1 5 -13 5 -14 0 -19 -2 -12 -5z"/>
<path d="M3490 2940 c0 -5 5 -10 10 -10 6 0 10 5 10 10 0 6 -4 10 -10 10 -5 0
-10 -4 -10 -10z"/>
<path d="M3520 2940 c0 -5 4 -10 9 -10 6 0 13 5 16 10 3 6 -1 10 -9 10 -9 0
-16 -4 -16 -10z"/>
<path d="M4824 2931 l28 -19 -22 -12 c-12 -6 -20 -13 -18 -16 4 -3 114 49 124
59 2 2 -12 3 -31 3 -19 0 -30 -3 -24 -7 25 -15 -12 -19 -40 -4 -42 21 -52 19
-17 -4z"/>
<path d="M4445 2930 c-49 -7 -49 -7 22 -8 39 -1 75 3 78 8 7 11 -20 11 -100 0z"/>
<path d="M4600 2930 l45 -7 -40 -2 c-22 -1 -47 -6 -55 -11 -13 -9 -13 -11 0
-20 8 -5 20 -9 25 -9 6 0 4 3 -2 6 -24 9 -13 23 20 23 17 1 55 7 82 15 l50 14
-85 -1 c-70 -1 -77 -2 -40 -8z"/>
<path d="M4114 2922 c30 -3 36 -6 25 -14 -10 -7 -5 -7 16 -2 17 4 50 10 75 14
32 4 15 6 -55 6 -55 0 -82 -2 -61 -4z"/>
<path d="M4333 2923 c9 -2 23 -2 30 0 6 3 -1 5 -18 5 -16 0 -22 -2 -12 -5z"/>
<path d="M3457 2906 c-7 -18 15 -45 38 -46 6 0 4 4 -4 9 -8 5 -9 10 -2 12 7 3
7 9 1 19 -8 12 -10 12 -11 -5 -1 -16 -2 -15 -8 5 -6 22 -8 23 -14 6z"/>
<path d="M3508 2895 c-3 -14 0 -32 7 -41 10 -14 15 -15 31 -5 18 12 18 12 -1
8 -15 -3 -21 1 -22 14 -1 16 6 19 40 21 l42 1 -45 7 -45 6 40 5 40 6 -41 1
c-37 2 -42 -1 -46 -23z"/>
<path d="M3707 2913 c18 -2 50 -2 70 0 21 2 7 4 -32 4 -38 0 -55 -2 -38 -4z"/>
<path d="M3880 2910 l-35 -7 38 -2 c20 0 37 4 37 9 0 6 -1 9 -2 9 -2 -1 -19
-5 -38 -9z"/>
<path d="M3961 2916 c2 -2 31 -6 64 -9 37 -3 51 -2 35 3 -25 8 -107 13 -99 6z"/>
<path d="M4388 2903 c12 -2 32 -2 45 0 12 2 2 4 -23 4 -25 0 -35 -2 -22 -4z"/>
<path d="M3638 2893 c12 -2 32 -2 45 0 12 2 2 4 -23 4 -25 0 -35 -2 -22 -4z"/>
<path d="M3748 2893 c7 -3 16 -2 19 1 4 3 -2 6 -13 5 -11 0 -14 -3 -6 -6z"/>
<path d="M3958 2893 c6 -2 18 -2 25 0 6 3 1 5 -13 5 -14 0 -19 -2 -12 -5z"/>
<path d="M4010 2890 c0 -5 5 -10 10 -10 6 0 10 5 10 10 0 6 -4 10 -10 10 -5 0
-10 -4 -10 -10z"/>
<path d="M4328 2893 c7 -3 16 -2 19 1 4 3 -2 6 -13 5 -11 0 -14 -3 -6 -6z"/>
<path d="M4608 2893 c6 -2 18 -2 25 0 6 3 1 5 -13 5 -14 0 -19 -2 -12 -5z"/>
<path d="M3808 2883 c7 -3 16 -2 19 1 4 3 -2 6 -13 5 -11 0 -14 -3 -6 -6z"/>
<path d="M4066 2882 c-9 -14 30 -25 70 -19 22 3 19 4 -13 6 -23 0 -43 6 -45
13 -3 9 -6 9 -12 0z"/>
<path d="M4168 2883 c7 -3 16 -2 19 1 4 3 -2 6 -13 5 -11 0 -14 -3 -6 -6z"/>
<path d="M4378 2883 c7 -3 16 -2 19 1 4 3 -2 6 -13 5 -11 0 -14 -3 -6 -6z"/>
<path d="M3583 2863 c9 -2 23 -2 30 0 6 3 -1 5 -18 5 -16 0 -22 -2 -12 -5z"/>
<path d="M3880 2860 c0 -5 5 -10 10 -10 6 0 10 5 10 10 0 6 -4 10 -10 10 -5 0
-10 -4 -10 -10z"/>
<path d="M4678 2863 c6 -2 18 -2 25 0 6 3 1 5 -13 5 -14 0 -19 -2 -12 -5z"/>
<path d="M3616 2851 c-14 -5 -16 -10 -8 -15 7 -4 22 0 34 8 24 17 9 21 -26 7z"/>
<path d="M3910 2845 c-17 -20 4 -27 61 -22 l44 4 -47 1 c-28 1 -48 7 -48 13 0
8 17 10 51 7 29 -3 45 -2 37 3 -22 14 -85 10 -98 -6z"/>
<path d="M4053 2847 c-3 -5 -1 -7 5 -3 6 3 13 2 16 -3 4 -5 -2 -12 -11 -14
-16 -4 -16 -5 -1 -6 9 0 20 4 23 9 3 6 22 10 42 10 49 0 39 6 -20 12 -27 3
-50 1 -54 -5z"/>
<path d="M4705 2850 c-13 -6 -15 -9 -5 -9 8 0 22 4 30 9 18 12 2 12 -25 0z"/>
<path d="M3564 2842 c-7 -4 14 -18 52 -33 35 -15 62 -23 59 -19 -3 5 -25 16
-50 25 -24 10 -42 21 -39 26 6 11 -7 11 -22 1z"/>
<path d="M3855 2830 c-3 -5 -1 -10 4 -10 6 0 11 5 11 10 0 6 -2 10 -4 10 -3 0
-8 -4 -11 -10z"/>
<path d="M4560 2821 c0 -6 -19 -12 -42 -13 l-43 -1 37 -4 c41 -5 79 9 59 21
-6 4 -11 2 -11 -3z"/>
<path d="M4128 2813 c6 -2 18 -2 25 0 6 3 1 5 -13 5 -14 0 -19 -2 -12 -5z"/>
<path d="M3700 2790 c6 -4 12 -11 11 -16 0 -5 9 -8 20 -7 14 2 18 -1 13 -10
-4 -6 -4 -9 1 -5 4 4 14 1 22 -7 8 -8 24 -14 36 -14 20 1 21 2 2 6 -33 8 -44
26 -13 21 15 -3 25 -1 22 3 -3 5 -13 9 -23 9 -9 0 -23 6 -29 12 -7 7 -27 13
-44 14 -17 1 -25 -2 -18 -6z m61 -17 c12 -16 12 -17 -2 -5 -9 7 -25 10 -35 6
-16 -5 -16 -4 -4 5 20 15 25 14 41 -6z"/>
<path d="M3772 2795 c11 -8 68 -22 63 -15 -3 4 0 10 5 12 6 2 -7 4 -30 4 -22
1 -39 0 -38 -1z"/>
<path d="M3863 2760 c0 -25 2 -35 4 -22 2 12 2 32 0 45 -2 12 -4 2 -4 -23z"/>
<path d="M4303 2793 c8 -7 86 -9 81 -1 -2 4 -23 6 -45 6 -22 0 -38 -2 -36 -5z"/>
<path d="M4408 2793 c7 -3 16 -2 19 1 4 3 -2 6 -13 5 -11 0 -14 -3 -6 -6z"/>
<path d="M3835 2750 c-3 -5 -1 -10 4 -10 6 0 11 5 11 10 0 6 -2 10 -4 10 -3 0
-8 -4 -11 -10z"/>
<path d="M3280 2733 c0 -13 4 -23 9 -23 5 0 13 -9 16 -21 4 -11 9 -18 12 -16
2 3 -5 22 -16 44 -16 31 -20 34 -21 16z"/>
<path d="M3884 2728 c-3 -4 11 -8 30 -8 20 0 36 2 36 4 0 8 -61 12 -66 4z"/>
<path d="M4328 2718 c-7 -4 23 -8 69 -8 56 0 83 -4 86 -12 3 -8 6 -6 6 5 1 14
-8 17 -51 18 -29 0 -63 2 -75 3 -12 1 -28 -1 -35 -6z"/>
<path d="M3998 2713 c18 -2 45 -2 60 0 15 2 0 4 -33 4 -33 0 -45 -2 -27 -4z"/>
<path d="M4138 2713 c7 -3 16 -2 19 1 4 3 -2 6 -13 5 -11 0 -14 -3 -6 -6z"/>
<path d="M4515 2690 c3 -5 10 -10 16 -10 5 0 9 5 9 10 0 6 -7 10 -16 10 -8 0
-12 -4 -9 -10z"/>
<path d="M4136 2609 c-18 -63 -18 -116 -1 -123 9 -3 10 5 4 32 -4 20 -7 39 -7
42 1 3 7 25 15 49 7 24 11 46 9 49 -3 2 -12 -20 -20 -49z"/>
<path d="M5183 2620 c-3 -11 -9 -20 -13 -20 -4 0 -11 -8 -14 -17 -6 -15 -5
-15 13 1 18 16 35 56 24 56 -3 0 -7 -9 -10 -20z"/>
<path d="M4530 2583 c0 -13 5 -23 10 -23 13 0 13 11 0 30 -8 12 -10 11 -10 -7z"/>
<path d="M5197 2569 c-4 -21 -16 -48 -27 -61 -22 -29 -149 -85 -212 -94 -24
-3 -77 -14 -118 -24 -41 -10 -117 -24 -169 -30 -52 -6 -101 -15 -110 -21 -12
-7 -7 -8 19 -5 19 3 64 8 100 11 101 9 391 65 425 83 84 43 113 86 103 153 -3
20 -5 18 -11 -12z"/>
<path d="M4486 2575 c4 -8 10 -15 15 -15 4 0 6 7 3 15 -4 8 -10 15 -15 15 -4
0 -6 -7 -3 -15z"/>
<path d="M4974 2573 c6 -15 5 -16 -5 -5 -8 7 -37 12 -68 11 -46 0 -52 -2 -32
-10 13 -5 39 -7 57 -3 22 4 34 2 34 -5 0 -16 27 -14 33 3 3 8 -1 17 -10 20
-11 5 -14 2 -9 -11z"/>
<path d="M4568 2563 c6 -2 18 -2 25 0 6 3 1 5 -13 5 -14 0 -19 -2 -12 -5z"/>
<path d="M4641 2566 c3 -3 49 -6 103 -7 66 -1 94 -4 85 -11 -11 -7 -11 -9 -1
-6 8 2 14 8 15 13 1 6 -42 11 -103 13 -57 1 -102 0 -99 -2z"/>
<path d="M5115 2553 c-15 -12 -16 -14 -3 -10 11 4 18 0 20 -11 3 -14 6 -13 17
7 7 13 8 21 3 17 -6 -3 -12 -2 -14 3 -1 5 -12 3 -23 -6z"/>
<path d="M4153 2526 c0 -17 2 -23 7 -16 6 9 24 11 62 7 33 -3 45 -2 33 3 -11
5 -36 9 -57 9 -20 1 -38 7 -41 14 -2 6 -4 -1 -4 -17z"/>
<path d="M4876 2542 c-2 -4 14 -6 37 -5 l42 2 -40 -9 c-22 -4 -51 -6 -65 -4
-22 4 -22 3 -5 -5 19 -9 93 -5 125 6 12 4 11 7 -5 13 -26 11 -82 12 -89 2z"/>
<path d="M5030 2510 c-30 -17 -90 -44 -133 -61 -47 -19 -75 -35 -69 -41 5 -5
20 -4 38 3 16 7 45 13 64 14 62 3 122 25 127 46 3 10 9 19 14 19 5 0 9 5 9 11
0 8 -4 8 -14 0 -10 -8 -16 -9 -21 -1 -3 5 -2 10 2 10 5 0 18 7 29 15 29 22 15
17 -46 -15z m20 -35 c0 -15 -22 -25 -56 -25 -13 0 -24 -4 -24 -8 0 -10 -46
-10 -55 0 -8 8 40 22 69 20 10 0 15 2 12 6 -8 7 36 32 46 26 5 -3 8 -11 8 -19z
m-160 -45 c-8 -5 -19 -10 -25 -10 -5 0 -3 5 5 10 8 5 20 10 25 10 6 0 3 -5 -5
-10z"/>
<path d="M5020 2480 c-9 -6 -10 -10 -3 -10 6 0 15 5 18 10 8 12 4 12 -15 0z"/>
<path d="M5100 2520 c-9 -6 -10 -10 -3 -10 6 0 15 5 18 10 8 12 4 12 -15 0z"/>
<path d="M4825 2504 l30 -15 -27 6 c-15 3 -37 0 -48 -7 -16 -10 -24 -10 -41 1
-20 11 -21 11 -15 -4 6 -16 -1 -17 -63 -13 -39 2 -65 0 -58 -4 23 -15 154 -8
253 13 54 11 101 22 103 24 2 3 -20 4 -50 2 -30 -1 -67 1 -84 5 l-30 7 30 -15z"/>
<path d="M5104 2496 c-10 -8 -16 -17 -13 -20 3 -3 14 3 24 14 21 23 17 26 -11
6z"/>
<path d="M4198 2483 c23 -2 61 -2 85 0 23 2 4 4 -43 4 -47 0 -66 -2 -42 -4z"/>
<path d="M4332 2468 c3 -7 13 -13 24 -14 16 -1 16 0 1 3 -9 3 -15 9 -12 14 4
5 1 9 -5 9 -7 0 -10 -6 -8 -12z"/>
<path d="M4395 2470 c-3 -5 1 -10 10 -10 9 0 13 5 10 10 -3 6 -8 10 -10 10 -2
0 -7 -4 -10 -10z"/>
<path d="M4534 2471 c5 -7 -4 -9 -26 -5 -31 5 -31 4 7 -10 39 -15 103 -11 74
4 -29 16 -62 22 -55 11z m33 -17 c-3 -3 -12 -4 -19 -1 -8 3 -5 6 6 6 11 1 17
-2 13 -5z"/>
<path d="M4438 2463 c6 -2 18 -2 25 0 6 3 1 5 -13 5 -14 0 -19 -2 -12 -5z"/>
<path d="M3267 2447 c-3 -8 1 -14 9 -14 16 0 19 13 5 21 -5 3 -11 0 -14 -7z"/>
<path d="M4415 2440 c42 -11 117 -12 111 -2 -3 5 -36 9 -73 9 -49 0 -60 -2
-38 -7z"/>
<path d="M3845 2411 c-19 -8 -19 -8 3 -15 13 -4 26 -5 29 -2 4 3 0 6 -8 7 -8
0 -6 4 6 9 26 11 -2 12 -30 1z"/>
<path d="M4178 2413 c12 -2 30 -2 40 0 9 3 -1 5 -23 4 -22 0 -30 -2 -17 -4z"/>
<path d="M3905 2400 c3 -5 8 -10 11 -10 2 0 4 5 4 10 0 6 -5 10 -11 10 -5 0
-7 -4 -4 -10z"/>
<path d="M4775 2400 c-13 -6 -15 -9 -5 -9 8 0 22 4 30 9 18 12 2 12 -25 0z"/>
<path d="M3660 2396 c0 -2 7 -6 15 -10 8 -3 15 -1 15 4 0 6 -7 10 -15 10 -8 0
-15 -2 -15 -4z"/>
<path d="M4703 2393 c9 -2 25 -2 35 0 9 3 1 5 -18 5 -19 0 -27 -2 -17 -5z"/>
<path d="M0 400 l0 -400 4165 0 4165 0 0 400 0 400 -4165 0 -4165 0 0 -400z
m2194 124 c21 -21 20 -58 -1 -75 -15 -11 -16 -11 -5 1 15 18 16 52 0 68 -18
18 -55 15 -67 -5 -6 -10 -11 -13 -11 -7 -1 33 57 45 84 18z m-1831 -123 c22
-61 43 -108 47 -104 4 4 24 56 45 116 21 59 42 107 47 107 11 0 9 -5 -42 -149
-37 -104 -59 -132 -75 -94 -4 10 -22 61 -40 113 -18 52 -36 103 -41 114 -5 13
-3 17 6 14 8 -2 32 -55 53 -117z m517 89 c0 -23 4 -30 20 -30 11 0 20 -4 20
-10 0 -5 -10 -10 -21 -10 -20 0 -21 -4 -17 -71 3 -55 8 -74 23 -85 10 -8 16
-16 13 -19 -10 -10 -35 6 -47 31 -14 31 -15 224 -1 224 6 0 10 -13 10 -30z
m515 16 c24 -10 33 -20 29 -30 -5 -12 -10 -13 -39 0 -42 17 -56 18 -79 1 -27
-20 -10 -42 49 -61 84 -26 106 -71 61 -123 -22 -25 -30 -28 -90 -28 -70 0 -80
4 -71 27 5 13 12 14 40 5 50 -15 99 1 103 34 3 22 -3 28 -30 38 -66 24 -103
46 -106 64 -14 70 53 106 133 73z m105 -16 c0 -25 4 -30 25 -30 16 0 25 -6 25
-15 0 -9 -9 -15 -25 -15 -24 0 -25 -3 -25 -60 0 -55 2 -62 25 -72 14 -6 25
-15 25 -20 0 -18 -31 -20 -55 -4 -24 16 -25 20 -25 131 0 96 3 115 15 115 10
0 15 -10 15 -30z m482 -30 l3 -61 35 30 c19 17 44 30 55 31 16 0 12 -7 -20
-40 l-39 -40 42 -60 c40 -57 41 -60 20 -60 -16 0 -32 14 -53 45 -16 24 -33 45
-37 45 -5 0 -8 -20 -8 -45 0 -38 -3 -45 -20 -45 -19 0 -20 7 -20 130 0 122 1
130 20 130 16 0 19 -8 22 -60z m193 28 c1 -20 -2 -24 -11 -17 -8 7 -14 6 -17
-3 -3 -7 -6 2 -6 20 -1 27 3 33 17 30 11 -2 17 -13 17 -30z m-1546 -54 c12
-15 21 -40 21 -55 0 -29 0 -29 -65 -29 -72 0 -83 -12 -44 -51 17 -17 30 -20
65 -16 24 2 44 1 44 -3 0 -22 -85 -27 -111 -7 -24 18 -39 52 -39 87 0 86 83
133 129 74z m191 16 c17 -11 10 -13 -40 -10 -47 2 -75 -28 -75 -80 0 -55 26
-80 82 -80 27 0 42 -4 38 -10 -8 -13 -71 -13 -96 0 -53 29 -61 119 -14 166 25
25 77 32 105 14z m265 -13 c20 -16 28 -35 32 -69 5 -42 3 -50 -25 -78 -41 -40
-83 -41 -123 -1 -84 85 27 226 116 148z m85 7 c0 -14 2 -14 22 0 26 18 38 20
38 6 0 -5 -5 -10 -12 -10 -6 0 -20 -7 -30 -17 -14 -13 -18 -31 -18 -90 0 -42
-4 -73 -10 -73 -6 0 -10 40 -10 100 0 60 4 100 10 100 6 0 10 -7 10 -16z m545
-9 c20 -19 25 -34 25 -75 0 -63 -30 -100 -82 -100 -67 0 -107 62 -87 135 18
66 97 88 144 40z m179 19 c9 -3 16 -13 16 -21 0 -11 -7 -13 -29 -8 -59 13 -95
-37 -70 -97 11 -28 36 -40 74 -35 12 1 20 -4 20 -13 0 -19 -48 -25 -85 -10
-45 19 -64 88 -39 144 17 37 71 56 113 40z m267 -22 c-7 -2 -18 1 -23 6 -8 8
-4 9 13 5 13 -4 18 -8 10 -11z m3428 -75 c8 -26 17 -47 21 -47 4 0 13 21 21
47 8 25 20 48 26 50 13 5 -22 -113 -38 -131 -12 -14 -18 -5 -45 69 -16 44 -20
65 -12 63 7 -3 19 -26 27 -51z m638 36 c3 -8 -6 -11 -24 -10 -35 3 -37 -19 -3
-36 33 -16 40 -63 11 -72 -24 -7 -61 2 -61 15 0 5 14 7 30 4 24 -5 30 -3 30
10 0 9 -11 22 -25 28 -30 13 -41 43 -24 64 14 17 60 15 66 -3z m333 -18 c0
-37 10 -44 30 -20 7 8 17 15 22 15 6 0 5 -7 -2 -15 -12 -14 -11 -29 5 -67 11
-28 -10 -21 -23 7 -6 14 -16 25 -22 25 -5 0 -10 -11 -10 -25 0 -14 -4 -25 -10
-25 -6 0 -10 30 -10 70 0 40 4 70 10 70 6 0 10 -16 10 -35z m580 32 c0 -4 -34
-104 -45 -136 -3 -8 -8 -11 -11 -8 -8 7 38 147 48 147 4 0 8 -2 8 -3z m100
-41 c0 -26 5 -47 13 -50 10 -5 10 -7 0 -12 -7 -3 -13 -12 -13 -20 0 -8 -4 -14
-10 -14 -5 0 -10 7 -10 15 0 10 -10 15 -30 15 -37 0 -37 11 -2 66 35 57 52 57
52 0z m120 25 c14 -28 14 -28 -27 -66 l-38 -35 38 0 c20 0 37 -4 37 -10 0 -5
-20 -10 -45 -10 -56 0 -60 19 -11 62 42 37 38 62 -8 52 -27 -6 -29 -5 -17 10
18 22 58 20 71 -3z m110 0 c14 -28 14 -28 -27 -66 l-38 -35 38 0 c20 0 37 -4
37 -10 0 -5 -20 -10 -45 -10 -56 0 -59 18 -10 63 26 24 32 36 25 47 -8 12 -13
13 -29 3 -23 -14 -35 -5 -20 14 17 19 57 16 69 -6z m107 7 c16 -20 13 -105 -3
-119 -17 -14 -63 -4 -70 16 -4 8 -3 23 1 33 5 9 7 25 6 35 -5 38 44 63 66 35z
m123 -32 c0 -26 5 -47 13 -50 10 -5 10 -7 0 -12 -7 -3 -13 -12 -13 -20 0 -8
-4 -14 -10 -14 -5 0 -10 7 -10 15 0 10 -10 15 -30 15 -37 0 -37 7 -3 65 36 58
53 58 53 1z m120 25 c-5 -11 -15 -23 -20 -26 -6 -4 -2 -14 11 -24 40 -32 1
-82 -51 -66 -30 9 -24 26 6 19 17 -4 29 -2 35 7 10 16 -7 39 -29 39 -13 0 -13
2 1 18 23 25 21 32 -8 32 -14 0 -25 5 -25 10 0 6 20 10 45 10 42 0 45 -2 35
-19z m109 6 c34 -42 15 -127 -29 -127 -24 0 -50 36 -50 70 0 53 51 90 79 57z
m91 -47 c0 -47 3 -60 15 -60 8 0 15 -4 15 -10 0 -5 -18 -10 -40 -10 -22 0 -40
5 -40 10 0 6 7 10 15 10 11 0 15 12 15 45 0 38 -2 43 -17 38 -16 -6 -16 -4 1
15 29 34 36 27 36 -38z m-2092 23 c12 -12 13 -18 4 -21 -16 -5 -16 -59 1 -65
6 -2 9 -8 5 -12 -16 -17 -38 5 -38 40 0 19 -5 35 -10 35 -6 0 -5 8 2 20 15 24
15 24 36 3z m360 0 c12 -12 13 -18 4 -21 -14 -4 -17 -62 -2 -62 6 0 10 -5 10
-11 0 -6 -8 -9 -17 -7 -25 5 -40 118 -16 118 2 0 12 -8 21 -17z m-528 -22 c15
-29 13 -31 -26 -31 -24 0 -34 -4 -31 -12 2 -7 16 -13 30 -13 15 1 27 -3 27 -7
0 -16 -31 -21 -56 -10 -27 13 -34 58 -12 80 18 18 56 14 68 -7z m107 4 c2 -6
-9 -11 -24 -10 -23 0 -28 -4 -28 -25 0 -21 5 -25 28 -25 15 1 26 -4 24 -10 -5
-15 -46 -18 -63 -5 -20 17 -18 67 4 79 20 13 54 10 59 -4z m177 -1 c9 -8 16
-24 16 -34 0 -22 -26 -50 -46 -50 -32 0 -54 21 -54 50 0 45 52 66 84 34z m96
10 c0 -2 -9 -13 -20 -24 -11 -11 -20 -31 -20 -45 0 -14 -4 -25 -10 -25 -9 0
-15 82 -6 91 6 5 56 8 56 3z m261 -4 c23 -13 25 -53 3 -74 -32 -32 -84 -11
-84 34 0 42 39 62 81 40z m116 -5 c2 -6 -9 -11 -24 -10 -23 0 -28 -4 -28 -25
0 -21 5 -25 28 -25 15 1 26 -4 24 -10 -5 -15 -46 -18 -63 -5 -17 15 -18 62 -2
78 15 15 60 12 65 -3z m250 0 c2 -6 -9 -11 -24 -10 -23 0 -28 -4 -28 -25 0
-21 5 -25 28 -25 15 1 26 -4 24 -10 -5 -15 -46 -18 -63 -5 -20 17 -18 67 4 79
20 13 54 10 59 -4z m107 -1 c9 -8 16 -24 16 -34 0 -22 -26 -50 -46 -50 -32 0
-54 21 -54 50 0 45 52 66 84 34z m56 6 c0 -6 8 -5 20 2 15 9 22 10 31 1 8 -8
16 -9 29 -1 32 20 50 3 50 -47 0 -25 -4 -45 -10 -45 -5 0 -10 18 -10 41 0 33
-3 40 -17 37 -13 -2 -19 -14 -21 -41 -4 -47 -22 -49 -22 -3 0 19 -5 38 -12 42
-14 9 -38 -23 -38 -53 0 -13 -4 -23 -10 -23 -5 0 -10 23 -10 50 0 28 5 50 10
50 6 0 10 -5 10 -10z m-265 -80 c-3 -5 -10 -10 -16 -10 -5 0 -9 5 -9 10 0 6 7
10 16 10 8 0 12 -4 9 -10z"/>
<path d="M2150 500 c0 -5 5 -10 10 -10 6 0 10 5 10 10 0 6 -4 10 -10 10 -5 0
-10 -4 -10 -10z"/>
<path d="M536 418 c-28 -39 -21 -48 39 -48 48 0 55 3 55 19 0 48 -67 68 -94
29z"/>
<path d="M986 424 c-49 -49 -21 -144 42 -144 33 0 45 8 61 37 17 33 13 67 -10
97 -24 30 -69 35 -93 10z"/>
<path d="M1616 408 c-22 -31 -20 -74 4 -98 26 -26 55 -25 74 2 32 46 8 118
-39 118 -13 0 -31 -10 -39 -22z"/>
<path d="M7197 350 c-18 -29 -18 -30 2 -30 17 0 21 6 21 30 0 17 -1 30 -3 30
-1 0 -11 -13 -20 -30z"/>
<path d="M7532 373 c5 -26 38 -29 38 -4 0 15 -6 21 -21 21 -14 0 -19 -5 -17
-17z"/>
<path d="M7524 325 c-8 -21 10 -39 30 -32 22 9 20 24 -4 37 -16 9 -22 8 -26
-5z"/>
<path d="M7657 350 c-18 -29 -18 -30 2 -30 17 0 21 6 21 30 0 17 -1 30 -3 30
-1 0 -11 -13 -20 -30z"/>
<path d="M7882 378 c-17 -17 -15 -63 4 -79 14 -11 18 -10 30 6 17 22 18 40 4
66 -12 22 -21 24 -38 7z"/>
<path d="M5708 343 c6 -2 18 -2 25 0 6 3 1 5 -13 5 -14 0 -19 -2 -12 -5z"/>
<path d="M5984 336 c-10 -26 4 -48 28 -44 17 2 23 10 23 28 0 18 -6 26 -23 28
-13 2 -25 -3 -28 -12z"/>
<path d="M6344 336 c-10 -26 4 -48 28 -44 17 2 23 10 23 28 0 18 -6 26 -23 28
-13 2 -25 -3 -28 -12z"/>
<path d="M6814 336 c-10 -26 4 -48 28 -44 17 2 23 10 23 28 0 18 -6 26 -23 28
-13 2 -25 -3 -28 -12z"/>
</g>
</svg>
